<?xml version="1.0" encoding="utf-8"?>
<COLLADA xmlns="http://www.collada.org/2005/11/COLLADASchema" version="1.4.1" xmlns:xsi="http://www.w3.org/2001/XMLSchema-instance">
  <asset>
    <contributor>
      <author>Blender User</author>
      <authoring_tool>Blender 3.5.1 commit date:2023-04-24, commit time:18:11, hash:e1ccd9d4a1d3</authoring_tool>
    </contributor>
    <created>2023-05-05T17:43:46</created>
    <modified>2023-05-05T17:43:46</modified>
    <unit name="meter" meter="1"/>
    <up_axis>Z_UP</up_axis>
  </asset>
  <library_effects>
    <effect id="Cmn_VR7_001-effect">
      <profile_COMMON>
        <newparam sid="Cmn_VR7_galaxy_png-surface">
          <surface type="2D">
            <init_from>Cmn_VR7_galaxy_png</init_from>
          </surface>
        </newparam>
        <newparam sid="Cmn_VR7_galaxy_png-sampler">
          <sampler2D>
            <source>Cmn_VR7_galaxy_png-surface</source>
          </sampler2D>
        </newparam>
        <technique sid="common">
          <lambert>
            <emission>
              <color sid="emission">0 0 0 1</color>
            </emission>
            <diffuse>
              <texture texture="Cmn_VR7_galaxy_png-sampler" texcoord="mesh_Cmn_VR7-texcoord_1"/>
            </diffuse>
            <index_of_refraction>
              <float sid="ior">1.45</float>
            </index_of_refraction>
          </lambert>
        </technique>
      </profile_COMMON>
    </effect>
    <effect id="Cmn_VR7-effect">
      <profile_COMMON>
        <newparam sid="Cmn_VR7_png-surface">
          <surface type="2D">
            <init_from>Cmn_VR7_png</init_from>
          </surface>
        </newparam>
        <newparam sid="Cmn_VR7_png-sampler">
          <sampler2D>
            <source>Cmn_VR7_png-surface</source>
          </sampler2D>
        </newparam>
        <technique sid="common">
          <lambert>
            <emission>
              <color sid="emission">0 0 0 1</color>
            </emission>
            <diffuse>
              <texture texture="Cmn_VR7_png-sampler" texcoord="mesh_Cmn_VR7-texcoord"/>
            </diffuse>
            <index_of_refraction>
              <float sid="ior">1.45</float>
            </index_of_refraction>
          </lambert>
        </technique>
      </profile_COMMON>
    </effect>
  </library_effects>
  <library_images>
    <image id="Cmn_VR7_galaxy_png" name="Cmn_VR7_galaxy_png">
      <init_from>Cmn_VR7_galaxy.png</init_from>
    </image>
    <image id="Cmn_VR7_png" name="Cmn_VR7_png">
      <init_from>Cmn_VR7.png</init_from>
    </image>
  </library_images>
  <library_materials>
    <material id="Cmn_VR7_001-material" name="Cmn_VR7.001">
      <instance_effect url="#Cmn_VR7_001-effect"/>
    </material>
    <material id="Cmn_VR7-material" name="Cmn_VR7">
      <instance_effect url="#Cmn_VR7-effect"/>
    </material>
  </library_materials>
  <library_geometries>
    <geometry id="mesh_Cmn_VR7_001-mesh" name="mesh_Cmn_VR7.001">
      <mesh>
        <source id="mesh_Cmn_VR7_001-mesh-positions">
          <float_array id="mesh_Cmn_VR7_001-mesh-positions-array" count="390">8000 -30418.8 5812.34 17888.5 -25873.5 5812.34 9888.55 -30418.8 0 17888.5 -25873.5 -5812.34 8000 -30418.8 -5812.34 11055.7 -25873.5 -15216.9 3055.73 -30418.8 -9404.56 -9.76563e-4 -25873.5 -18809.1 -3055.73 -30418.8 -9404.56 -11055.7 -25873.5 -15216.9 -8000 -30418.8 -5812.34 -17888.5 -25873.5 -5812.34 -9888.541 -30418.8 0 -17888.5 -25873.5 5812.34 -8000 -30418.8 5812.34 -11055.7 -25873.5 15216.9 -3055.73 -30418.8 9404.56 0.001953125 -25873.5 18809.1 3055.73 -30418.8 9404.56 11055.7 -25873.5 15216.9 8000 -30418.8 5812.34 17888.5 -25873.5 5812.34 25888.6 -18794.1 0 20944.3 -18794.1 -15216.9 8000 -18794.1 -24621.5 -8000 -18794.1 -24621.5 -20944.3 -18794.1 -15216.9 -25888.5 -18794.1 0 -20944.3 -18794.1 15216.9 -8000 -18794.1 24621.5 8000 -18794.1 24621.5 20944.3 -18794.1 15216.9 25888.6 -18794.1 0 28944.3 -9873.541 -9404.56 17888.5 -9873.541 -24621.5 -9.76563e-4 -9873.541 -30433.8 -17888.5 -9873.541 -24621.5 -28944.3 -9873.541 -9404.56 -28944.3 -9873.541 9404.56 -17888.5 -9873.541 24621.5 0.002929687 -9873.541 30433.8 17888.5 -9873.541 24621.5 28944.3 -9873.541 9404.56 28944.3 -9873.541 -9404.56 25888.5 0 -18809.2 9888.541 0 -30433.8 -9888.55 0 -30433.8 -25888.5 0 -18809.1 -32000 0 0 -25888.5 0 18809.1 -9888.541 0 30433.8 9888.55 0 30433.8 25888.5 0 18809.1 32000 0 0 25888.5 0 -18809.2 17888.5 9903.541 -24621.5 0 9903.541 -30433.8 -17888.5 9903.541 -24621.5 -28944.3 9903.541 -9404.56 -28944.3 9903.541 9404.56 -17888.5 9903.541 24621.5 0.002929687 9903.541 30433.8 17888.5 9903.541 24621.5 28944.3 9903.541 9404.56 28944.3 9903.541 -9404.56 17888.5 9903.541 -24621.5 8000 18824.1 -24621.5 -8000 18824.1 -24621.5 -20944.3 18824.1 -15216.9 -25888.5 18824.1 0 -20944.3 18824.1 15216.9 -8000 18824.1 24621.5 8000 18824.1 24621.5 20944.3 18824.1 15216.9 25888.5 18824.1 0 20944.3 18824.1 -15216.9 8000 18824.1 -24621.5 8000 18824.1 -24621.5 9.76563e-4 25903.5 -18809.1 -8000 18824.1 -24621.5 -11055.7 25903.5 -15216.9 -20944.3 18824.1 -15216.9 -17888.5 25903.5 -5812.34 -25888.5 18824.1 0 -17888.5 25903.5 5812.34 -20944.3 18824.1 15216.9 -11055.7 25903.5 15216.9 -8000 18824.1 24621.5 0.001953125 25903.5 18809.1 8000 18824.1 24621.5 11055.7 25903.5 15216.9 20944.3 18824.1 15216.9 17888.5 25903.5 5812.34 25888.5 18824.1 0 17888.5 25903.5 -5812.34 20944.3 18824.1 -15216.9 11055.7 25903.5 -15216.9 8000 18824.1 -24621.5 9.76563e-4 25903.5 -18809.1 -3055.73 30448.8 -9404.56 -8000 30448.8 -5812.34 -9888.541 30448.8 0 -8000 30448.8 5812.34 -3055.73 30448.8 9404.56 3055.73 30448.8 9404.56 8000 30448.8 5812.34 9888.55 30448.8 0 8000 30448.8 -5812.34 3055.73 30448.8 -9404.56 -3055.73 30448.8 -9404.56 0.001221716 -31985 0 0.001221716 -31985 0 0.001221716 -31985 0 0.001221716 -31985 0 0.001221716 -31985 0 0.001221716 -31985 0 0.001221716 -31985 0 0.001221716 -31985 0 0.001221716 -31985 0 0.001221716 -31985 0 0.001915812 32015 0 0.001915812 32015 0 0.001915812 32015 0 0.001915812 32015 0 0.001915812 32015 0 0.001915812 32015 0 0.001915812 32015 0 0.001915812 32015 0 0.001915812 32015 0 0.001915812 32015 0</float_array>
          <technique_common>
            <accessor source="#mesh_Cmn_VR7_001-mesh-positions-array" count="130" stride="3">
              <param name="X" type="float"/>
              <param name="Y" type="float"/>
              <param name="Z" type="float"/>
            </accessor>
          </technique_common>
        </source>
        <source id="mesh_Cmn_VR7_001-mesh-normals">
          <float_array id="mesh_Cmn_VR7_001-mesh-normals-array" count="534">-0.4138538 0.9003571 -0.1344702 -0.1562334 0.9864149 -0.05076366 -0.4939992 0.8694624 0 -0.6626993 0.7488857 0 -0.7350489 0.6345565 0.2388331 -0.7968364 0.5459102 0.2589093 -0.7653579 0.3240617 0.5560677 -0.7728496 0.2956517 0.5615103 -0.5877835 1.22907e-6 0.8090184 -0.5877835 -1.22535e-6 0.8090184 -0.2952798 -0.2948325 0.9087815 -0.2923402 -0.3240609 0.8997343 0 -0.5459083 0.837845 0.2923402 -0.3240609 0.8997343 0.2952798 -0.2948328 0.9087814 0 0 1 -0.2952015 0.2956501 0.9085412 -0.2923402 0.3240609 0.8997343 -0.492473 0.5459095 0.6778298 -0.4542869 0.6345543 0.6252715 -0.5361372 0.7488837 0.3895258 -0.3996532 0.869463 0.2903642 -0.4138538 0.9003571 0.1344702 -0.1562334 0.9864149 0.0507642 -0.2557752 0.9003577 0.3520444 -0.09655761 0.986415 0.1328997 -0.152653 0.8694635 0.4698197 -0.2047856 0.7488835 0.6302669 0 0.6345554 0.7728775 0 0.5459083 0.837845 0.2923401 0.3240609 0.8997343 0.2952016 0.2956504 0.9085411 0.587787 -2.54008e-6 0.8090157 0.5877871 2.53238e-6 0.8090157 0.7730552 -0.2948288 0.5616598 0.765358 -0.3240617 0.5560677 0.4924731 -0.5459095 0.6778297 0.7968361 -0.5459132 0.2589039 0.9460329 -0.3240706 0 0.9555495 -0.2948308 0 0.9510558 5.22814e-6 0.3090195 0.9510558 -5.24403e-6 0.3090194 0.7728508 0.2956465 0.5615112 0.7653579 0.3240617 0.5560677 0.492473 0.5459095 0.6778298 0.4542868 0.6345542 0.6252716 0.2047856 0.7488835 0.6302669 0.152653 0.8694633 0.4698199 0 0.9003576 0.4351509 0 0.9864148 0.1642739 0.2557752 0.9003576 0.3520447 0.09655755 0.9864149 0.1329002 0.3996532 0.869463 0.2903641 0.5361372 0.7488837 0.3895258 0.7350525 0.6345537 0.2388294 0.7968361 0.5459132 0.258904 0.9460329 0.3240706 0 0.9552968 0.2956484 0 0.9510558 -5.08015e-6 -0.3090194 0.9510558 5.06476e-6 -0.3090195 0.7730552 -0.2948288 -0.5616598 0.765358 -0.3240617 -0.5560677 0.7968361 -0.5459132 -0.258904 0.4924731 -0.5459096 -0.6778297 0.2923402 -0.3240609 -0.8997343 0.2952797 -0.2948325 -0.9087815 0.5877868 3.02252e-6 -0.8090159 0.5877868 -3.0317e-6 -0.8090159 0.7728509 0.2956464 -0.5615113 0.7653579 0.3240617 -0.5560677 0.7968361 0.5459132 -0.258904 0.7350525 0.6345537 -0.2388294 0.662704 0.7488815 0 0.4939985 0.8694627 0 0.413854 0.9003572 0.1344693 0.1562336 0.9864149 0.05076313 0.413854 0.9003572 -0.1344693 0.1562336 0.9864149 -0.05076313 0.3996532 0.869463 -0.2903642 0.5361372 0.7488837 -0.3895258 0.4542869 0.6345543 -0.6252715 0.492473 0.5459095 -0.6778298 0.2923402 0.3240609 -0.8997343 0.2952015 0.2956502 -0.9085413 0 0 -1 -0.2952798 -0.2948327 -0.9087814 -0.2923402 -0.324061 -0.8997343 0 -0.5459083 -0.837845 -0.4924731 -0.5459095 -0.6778297 -0.765358 -0.3240617 -0.5560677 -0.7730552 -0.2948288 -0.5616598 -0.5877871 2.53238e-6 -0.8090157 -0.587787 -2.54008e-6 -0.8090157 -0.2952016 0.2956503 -0.9085411 -0.2923402 0.324061 -0.8997343 0 0.5459083 -0.837845 0 0.6345555 -0.7728775 0.2047856 0.7488837 -0.6302667 0.1526529 0.8694632 -0.46982 0.2557752 0.9003577 -0.3520444 0.09655761 0.9864149 -0.1329002 0 0.9003576 -0.4351509 0 0.9864148 -0.1642739 -0.152653 0.8694633 -0.4698199 -0.2047857 0.7488836 -0.6302669 -0.4542868 0.6345542 -0.6252716 -0.492473 0.5459095 -0.6778298 -0.7653579 0.3240617 -0.5560677 -0.7728508 0.2956465 -0.5615112 -0.9510558 -5.24403e-6 -0.3090194 -0.9510558 5.22814e-6 -0.3090195 -0.9555495 -0.2948308 0 -0.9460329 -0.3240706 0 -0.7968361 -0.5459132 -0.2589039 -0.7968361 -0.5459132 0.258904 -0.765358 -0.3240617 0.5560677 -0.7730538 -0.294834 0.5616589 -0.9510563 3.43095e-6 0.3090179 -0.9510563 -3.44138e-6 0.3090179 -0.9552968 0.2956484 0 -0.9460361 0.3240615 0 -0.7968364 0.5459102 -0.2589093 -0.7350489 0.6345565 -0.2388331 -0.5361372 0.7488837 -0.3895258 -0.3996532 0.869463 -0.2903641 -0.2557752 0.9003576 -0.3520447 -0.09655761 0.986415 -0.1328997 -0.4924731 -0.5459096 0.6778297 0 -0.6345554 0.7728775 0.2047856 -0.7488837 0.6302668 0.1526529 -0.8694632 0.46982 0.2557752 -0.9003576 0.3520444 0.09655755 -0.9864148 0.1329007 0.3996532 -0.869463 0.2903646 0.5361372 -0.7488837 0.3895257 0.4542868 -0.6345542 0.6252716 0.7350525 -0.6345537 0.2388297 0.662704 -0.7488815 0 0.4939985 -0.8694627 0 0.413854 -0.9003572 0.1344688 0.1562336 -0.9864149 0.05076313 0.413854 -0.9003572 -0.1344693 0.1562336 -0.9864149 -0.05076313 0.3996532 -0.869463 -0.2903646 0.5361372 -0.7488837 -0.3895255 0.7350524 -0.6345537 -0.2388295 0.4542868 -0.6345542 -0.6252716 0.2047856 -0.7488836 -0.6302669 0.152653 -0.8694633 -0.4698199 0.2557752 -0.9003577 -0.3520444 0.09655755 -0.9864148 -0.1329005 0 -0.9003576 -0.4351509 0 -0.9864149 -0.1642736 -0.152653 -0.8694633 -0.4698199 -0.2047857 -0.7488836 -0.6302669 0 -0.6345555 -0.7728775 -0.4542868 -0.6345542 -0.6252716 -0.5361372 -0.7488837 -0.3895257 -0.3996532 -0.869463 -0.2903646 -0.2557752 -0.9003576 -0.3520444 -0.09655761 -0.9864149 -0.1329002 -0.4138539 -0.9003573 -0.1344693 -0.1562334 -0.9864148 -0.0507642 -0.4939992 -0.8694624 0 -0.662704 -0.7488815 0 -0.7350525 -0.6345537 -0.2388297 -0.7350524 -0.6345537 0.2388295 -0.5361372 -0.7488837 0.3895255 -0.3996532 -0.869463 0.2903646 -0.4138539 -0.9003573 0.1344693 -0.1562334 -0.9864149 0.05076366 -0.2557752 -0.9003577 0.3520444 -0.09655761 -0.9864149 0.1329002 -0.152653 -0.8694633 0.4698197 -0.2047856 -0.7488834 0.630267 -0.4542868 -0.6345542 0.6252716 0 -0.9003576 0.4351509 0 -0.9864149 0.1642736</float_array>
          <technique_common>
            <accessor source="#mesh_Cmn_VR7_001-mesh-normals-array" count="178" stride="3">
              <param name="X" type="float"/>
              <param name="Y" type="float"/>
              <param name="Z" type="float"/>
            </accessor>
          </technique_common>
        </source>
        <source id="mesh_Cmn_VR7_001-mesh-map-0">
          <float_array id="mesh_Cmn_VR7_001-mesh-map-0-array" count="1080">0 0 0 0 0 0 0 0 0 0 0 0 0 0 0 0 0 0 0 0 0 0 0 0 0 0 0 0 0 0 0 0 0 0 0 0 0 0 0 0 0 0 0 0 0 0 0 0 0 0 0 0 0 0 0 0 0 0 0 0 0 0 0 0 0 0 0 0 0 0 0 0 0 0 0 0 0 0 0 0 0 0 0 0 0 0 0 0 0 0 0 0 0 0 0 0 0 0 0 0 0 0 0 0 0 0 0 0 0 0 0 0 0 0 0 0 0 0 0 0 0 0 0 0 0 0 0 0 0 0 0 0 0 0 0 0 0 0 0 0 0 0 0 0 0 0 0 0 0 0 0 0 0 0 0 0 0 0 0 0 0 0 0 0 0 0 0 0 0 0 0 0 0 0 0 0 0 0 0 0 0 0 0 0 0 0 0 0 0 0 0 0 0 0 0 0 0 0 0 0 0 0 0 0 0 0 0 0 0 0 0 0 0 0 0 0 0 0 0 0 0 0 0 0 0 0 0 0 0 0 0 0 0 0 0 0 0 0 0 0 0 0 0 0 0 0 0 0 0 0 0 0 0 0 0 0 0 0 0 0 0 0 0 0 0 0 0 0 0 0 0 0 0 0 0 0 0 0 0 0 0 0 0 0 0 0 0 0 0 0 0 0 0 0 0 0 0 0 0 0 0 0 0 0 0 0 0 0 0 0 0 0 0 0 0 0 0 0 0 0 0 0 0 0 0 0 0 0 0 0 0 0 0 0 0 0 0 0 0 0 0 0 0 0 0 0 0 0 0 0 0 0 0 0 0 0 0 0 0 0 0 0 0 0 0 0 0 0 0 0 0 0 0 0 0 0 0 0 0 0 0 0 0 0 0 0 0 0 0 0 0 0 0 0 0 0 0 0 0 0 0 0 0 0 0 0 0 0 0 0 0 0 0 0 0 0 0 0 0 0 0 0 0 0 0 0 0 0 0 0 0 0 0 0 0 0 0 0 0 0 0 0 0 0 0 0 0 0 0 0 0 0 0 0 0 0 0 0 0 0 0 0 0 0 0 0 0 0 0 0 0 0 0 0 0 0 0 0 0 0 0 0 0 0 0 0 0 0 0 0 0 0 0 0 0 0 0 0 0 0 0 0 0 0 0 0 0 0 0 0 0 0 0 0 0 0 0 0 0 0 0 0 0 0 0 0 0 0 0 0 0 0 0 0 0 0 0 0 0 0 0 0 0 0 0 0 0 0 0 0 0 0 0 0 0 0 0 0 0 0 0 0 0 0 0 0 0 0 0 0 0 0 0 0 0 0 0 0 0 0 0 0 0 0 0 0 0 0 0 0 0 0 0 0 0 0 0 0 0 0 0 0 0 0 0 0 0 0 0 0 0 0 0 0 0 0 0 0 0 0 0 0 0 0 0 0 0 0 0 0 0 0 0 0 0 0 0 0 0 0 0 0 0 0 0 0 0 0 0 0 0 0 0 0 0 0 0 0 0 0 0 0 0 0 0 0 0 0 0 0 0 0 0 0 0 0 0 0 0 0 0 0 0 0 0 0 0 0 0 0 0 0 0 0 0 0 0 0 0 0 0 0 0 0 0 0 0 0 0 0 0 0 0 0 0 0 0 0 0 0 0 0 0 0 0 0 0 0 0 0 0 0 0 0 0 0 0 0 0 0 0 0 0 0 0 0 0 0 0 0 0 0 0 0 0 0 0 0 0 0 0 0 0 0 0 0 0 0 0 0 0 0 0 0 0 0 0 0 0 0 0.49569 -0.07542002 0.423685 0.086995 0.1718119 0.02732902 0.423685 0.086995 0.207382 0.208533 0.1718119 0.02732902 0.423685 0.086995 0.435107 0.290001 0.207382 0.208533 0.435107 0.290001 0.330108 0.370214 0.207382 0.208533 0.435107 0.290001 0.5 0.5 0.330108 0.370214 0.207382 0.208533 0.330108 0.370214 0.10285 0.441402 0.207382 0.208533 0.10285 0.441402 -0.02670866 0.31062 0.1718119 0.02732902 0.207382 0.208533 -0.02670866 0.31062 -0.02670866 0.31062 0.10285 0.441402 -0.02404487 0.666249 0.10285 0.441402 0.150016 0.696654 -0.02404487 0.666249 0.10285 0.441402 0.290001 0.5 0.150016 0.696654 0.330108 0.370214 0.290001 0.5 0.10285 0.441402 0.330108 0.370214 0.5 0.5 0.290001 0.5 0.290001 0.5 0.330108 0.629786 0.150016 0.696654 0.290001 0.5 0.5 0.5 0.330108 0.629786 0.150016 0.696654 0.330108 0.629786 0.330864 0.87679 0.150016 0.696654 0.330864 0.87679 0.178786 0.9583756 -0.02404487 0.666249 0.150016 0.696654 0.178786 0.9583756 0.178786 0.9583756 0.330864 0.87679 0.50431 1.075418 0.330864 0.87679 0.576315 0.9130051 0.50431 1.075418 0.330864 0.87679 0.435107 0.709998 0.576315 0.9130051 0.330108 0.629786 0.435107 0.709998 0.330864 0.87679 0.330108 0.629786 0.5 0.5 0.435107 0.709998 0.435107 0.709998 0.564893 0.709998 0.576315 0.9130051 0.435107 0.709998 0.5 0.5 0.564893 0.709998 0.576315 0.9130051 0.564893 0.709998 0.792618 0.791467 0.576315 0.9130051 0.792618 0.791467 0.828187 0.972671 0.50431 1.075418 0.576315 0.9130051 0.828187 0.972671 0.828187 0.972671 0.792618 0.791467 1.02671 0.689379 0.792618 0.791467 0.89715 0.558598 1.02671 0.689379 0.792618 0.791467 0.669892 0.629786 0.89715 0.558598 0.564893 0.709998 0.669892 0.629786 0.792618 0.791467 0.564893 0.709998 0.5 0.5 0.669892 0.629786 0.669892 0.629786 0.709998 0.5 0.89715 0.558598 0.669892 0.629786 0.5 0.5 0.709998 0.5 0.89715 0.558598 0.709998 0.5 0.849984 0.303346 0.89715 0.558598 0.849984 0.303346 1.02404 0.333751 1.02671 0.689379 0.89715 0.558598 1.02404 0.333751 1.02404 0.333751 0.849984 0.303346 0.821214 0.041624 0.849984 0.303346 0.669137 0.12321 0.821214 0.041624 0.849984 0.303346 0.669892 0.370214 0.669137 0.12321 0.709998 0.5 0.669892 0.370214 0.849984 0.303346 0.709998 0.5 0.5 0.5 0.669892 0.370214 0.669892 0.370214 0.564893 0.290001 0.669137 0.12321 0.669892 0.370214 0.5 0.5 0.564893 0.290001 0.669137 0.12321 0.564893 0.290001 0.423685 0.086995 0.669137 0.12321 0.423685 0.086995 0.49569 -0.07542002 0.821214 0.041624 0.669137 0.12321 0.49569 -0.07542002 0.564893 0.290001 0.435107 0.290001 0.423685 0.086995 0.564893 0.290001 0.5 0.5 0.435107 0.290001</float_array>
          <technique_common>
            <accessor source="#mesh_Cmn_VR7_001-mesh-map-0-array" count="540" stride="2">
              <param name="S" type="float"/>
              <param name="T" type="float"/>
            </accessor>
          </technique_common>
        </source>
        <source id="mesh_Cmn_VR7_001-mesh-colors-mesh_Cmn_VR7-color" name="mesh_Cmn_VR7-color">
          <float_array id="mesh_Cmn_VR7_001-mesh-colors-mesh_Cmn_VR7-color-array" count="2160">0 0 0 0 0 0 0 0 0 0 0 0 0 0 0 0 0 0 0 0 0 0 0 0 0 0 0 0 0 0 0 0 0 0 0 0 0 0 0 0 0 0 0 0 0 0 0 0 0 0 0 0 0 0 0 0 0 0 0 0 0 0 0 0 0 0 0 0 0 0 0 0 0 0 0 0 0 0 0 0 0 0 0 0 0 0 0 0 0 0 0 0 0 0 0 0 0 0 0 0 0 0 0 0 0 0 0 0 0 0 0 0 0 0 0 0 0 0 0 0 0 0 0 0 0 0 0 0 0 0 0 0 0 0 0 0 0 0 0 0 0 0 0 0 0 0 0 0 0 0 0 0 0 0 0 0 0 0 0 0 0 0 0 0 0 0 0 0 0 0 0 0 0 0 0 0 0 0 0 0 0 0 0 0 0 0 0 0 0 0 0 0 0 0 0 0 0 0 0 0 0 0 0 0 0 0 0 0 0 0 0 0 0 0 0 0 0 0 0 0 0 0 0 0 0 0 0 0 0 0 0 0 0 0 0 0 0 0 0 0 0 0 0 0 0 0 0 0 0 0 0 0 0 0 0 0 0 0 0 0 0 0 0 0 0 0 0 0 0 0 0 0 0 0 0 0 0 0 0 0 0 0 0 0 0 0 0 0 0 0 0 0 0 0 0 0 0 0 0 0 0 0 0 0 0 0 0 0 0 0 0 0 0 0 0 0 0 0 0 0 0 0 0 0 0 0 0 0 0 0 0 0 0 0 0 0 0 0 0 0 0 0 0 0 0 0 0 0 0 0 0 0 0 0 0 0 0 0 0 0 0 0 0 0 0 0 0 0 0 0 0 0 0 0 0 0 0 0 0 0 0 0 0 0 0 0 0 0 0 0 0 0 0 0 0 0 0 0 0 0 0 0 0 0 0 0 0 0 0 0 0 0 0 0 0 0 0 0 0 0 0 0 0 0 0 0 0 0 0 0 0 0 0 0 0 0 0 0 0 0 0 0 0 0 0 0 0 0 0 0 0 0 0 0 0 0 0 0 0 0 0 0 0 0 0 0 0 0 0 0 0 0 0 0 0 0 0 0 0 0 0 0 0 0 0 0 0 0 0 0 0 0 0 0 0 0 0 0 0 0 0 0 0 0 0 0 0 0 0 0 0 0 0 0 0 0 0 0 0 0 0 0 0 0 0 0 0 0 0 0 0 0 0 0 0 0 0 0 0 0 0 0 0 0 0 0 0 0 0 0 0 0 0 0 0 0 0 0 0 0 0 0 0 0 0 0 0 0 0 0 0 0 0 0 0 0 0 0 0 0 0 0 0 0 0 0 0 0 0 0 0 0 0 0 0 0 0 0 0 0 0 0 0 0 0 0 0 0 0 0 0 0 0 0 0 0 0 0 0 0 0 0 0 0 0 0 0 0 0 0 0 0 0 0 0 0 0 0 0 0 0 0 0 0 0 0 0 0 0 0 0 0 0 0 0 0 0 0 0 0 0 0 0 0 0 0 0 0 0 0 0 0 0 0 0 0 0 0 0 0 0 0 0 0 0 0 0 0 0 0 0 0 0 0 0 0 0 0 0 0 0 0 0 0 0 0 0 0 0 0 0 0 0 0 0 0 0 0 0 0 0 0 0 0 0 0 0 0 0 0 0 0 0 0 0 0 0 0 0 0 0 0 0 0 0 0 0 0 0 0 0 0 0 0 0 0 0 0 0 0 0 0 0 0 0 0 0 0 0 0 0 0 0 0 0 0 0 0 0 0 0 0 0 0 0 0 0 0 0 0 0 0 0 0 0 0 0 0 0 0 0 0 0 0 0 0 0 0 0 0 0 0 0 0 0 0 0 0 0 0 0 0 0 0 0 0 0 0 0 0 0 0 0 0 0 0 0 0 0 0 0 0 0 0 0 0 0 0 0 0 0 0 0 0 0 0 0 0 0 0 0 0 0 0 0 0 0 0 0 0 0 0 0 0 0 0 0 0 0 0 0 0 0 0 0 0 0 0 0 0 0 0 0 0 0 0 0 0 0 0 0 0 0 0 0 0 0 0 0 0 0 0 0 0 0 0 0 0 0 0 0 0 0 0 0 0 0 0 0 0 0 0 0 0 0 0 0 0 0 0 0 0 0 0 0 0 0 0 0 0 0 0 0 0 0 0 0 0 0 0 0 0 0 0 0 0 0 0 0 0 0 0 0 0 0 0 0 0 0 0 0 0 0 0 0 0 0 0 0 0 0 0 0 0 0 0 0 0 0 0 0 0 0 0 0 0 0 0 0 0 0 0 0 0 0 0 0 0 0 0 0 0 0 0 0 0 0 0 0 0 0 0 0 0 0 0 0 0 0 0 0 0 0 0 0 0 0 0 0 0 0 0 0 0 0 0 0 0 0 0 0 0 0 0 0 0 0 0 0 0 0 0 0 0 0 0 0 0 0 0 0 0 0 0 0 0 0 0 0 0 0 0 0 0 0 0 0 0 0 0 0 0 0 0 0 0 0 0 0 0 0 0 0 0 0 0 0 0 0 0 0 0 0 0 0 0 0 0 0 0 0 0 0 0 0 0 0 0 0 0 0 0 0 0 0 0 0 0 0 0 0 0 0 0 0 0 0 0 0 0 0 0 0 0 0 0 0 0 0 0 0 0 0 0 0 0 0 0 0 0 0 0 0 0 0 0 0 0 0 0 0 0 0 0 0 0 0 0 0 0 0 0 0 0 0 0 0 0 0 0 0 0 0 0 0 0 0 0 0 0 0 0 0 0 0 0 0 0 0 0 0 0 0 0 0 0 0 0 0 0 0 0 0 0 0 0 0 0 0 0 0 0 0 0 0 0 0 0 0 0 0 0 0 0 0 0 0 0 0 0 0 0 0 0 0 0 0 0 0 0 0 0 0 0 0 0 0 0 0 0 0 0 0 0 0 0 0 0 0 0 0 0 0 0 0 0 0 0 0 0 0 0 0 0 0 0 0 0 0 0 0 0 0 0 0 0 0 0 0 0 0 0 0 0 0 0 0 0 0 0 0 0 0 0 0 0 0 0 0 0 0 0 0 0 0 0 0 0 0 0 0 0 0 0 0 0 0 0 0 0 0 0 0 0 0 0 0 0 0 0 0 0 0 0 0 0 0 0 0 0 0 0 0 0 0 0 0 0 0 0 0 0 0 0 0 0 0 0 0 0 0 0 0 0 0 0 0 0 0 0 0 0 0 0 0 0 0 0 0 0 0 0 0 0 0 0 0 0 0 0 0 0 0 0 0 0 0 0 0 0 0 0 0 0 0 0 0 0 0 0 0 0 0 0 0 0 0 0 0 0 0 0 0 0 0 0 0 0 0 0 0 0 0 0 0 0 0 0 0 0 0 0 0 0 0 0 0 0 0 0 0 0 0 0 0 0 0 0 0 0 0 0 0 0 0 0 0 0 0 0 0 0 0 0 0 0 0 0 0 0 0 0 0 0 0 0 0 0 0 0 0 0 0 0 0 0 0 0 0 0 0 0 0 0 0 0 0 0 0 0 0 0 0 0 0 0 0 0 0 0 0 0 0 0 0 0 0 0 0 0 0 0 0 0 0 0 0 0 0 0 0 0 0 0 0 0 0 0 0 0 0 0 0 0 0 0 0 0 0 0 0 0 0 0 0 0 0 0 0 0 0 0 0 0 0 0 0 0 0 0 0 0 0 0 0 0 0 0 0 0 0 0 0 0 0 0 0 0 0 0 0 0 0 0 0 0 0 0 0 0 0 0 0 0 0 0 0 0 0 0 0 0 0 0 0 0 0 0 0 0 0 0 0 0 0 0 0 0 0 0 0 0 0 0 0 0 0 0 0 0 0 0 0 0 0 0 0 0 0 0 0 0 0 0 0 0 0 0 0 0 0 0 0 0 0 0 0 0 0 0 0 0 0 0 0 0 0 0 0 0 0 0 0 0 0 0 0 0 0 0 0 0 0 0 0 0 0 0 0 0 0 0 0 0 0 0 0 0 0 0 0 0 0 0 0 0 0 0 0 0 0 0 0 0 0 0 0 0 0 0 0 0 0 0 0 0 0 0 0 0 0 0 0 0 0 0 0 0 0 0 0 0 0 0 0 0 0 0 0 0 0 0 0 0 0 0 0 0 0 0 0 0 0 0 0 0 0 0 0 0 0 0 0 0 0 0 0 0 0 0 0 0 0 0 0 0 0 0 0 0 0 0 0 0 0 0 0 0 0 0 0 0 0 0 0 0 0 0 0 0 0 0 0 0 0 0 0 0 0 0 0 0 0 0 0 0 0 0 0 0 0 0 0 0 0 0 0 0 0 0 0 0 0 0 0 0 0 0 0 0 0 0 0 0 0 0 0 0 0 0 0 0 0 0 0 0 0 0 0 0 0 0 0 0 0 0 0 0 0 0 0 0 0 0 0 0 0 0 0 0 0 0 0 0 0 0 0 0 0 0 0 0 0 0 0 0 0 0 0 0 0 0 0 0 0 0 0 0 0 0 0 0 0 0 0 0 0 0 0 0 0 0 0 0 0 0 0 0 0 0 0 0 0 0 0 0 0 0 0 0 0 0 0 0 0 0 0 0 0 0 0 0 0 0 0 0 0 0 0 0 0 0 0 0 0 0 0 0 0 0 0 0 0 0 0 0 0 0 0 0 0 0 0 0 0 0 0 0 0 0 0 0 0 0 0 0 0 0 0 0 0 0 0 0 0 0 0 0 0 0 0 0 0 0 0 0 0 0 0 0 0 0 0 0 0 0 0 0 0 0 0 0 0 0 0 0 0 0 0 0 0 0 0 0 0 0 0 0 0 0 0 0 0 0 0 0 0 0 0 0 0 0 0 0 0 0 0 0 0 0 0 0 0 0 0 0 0 0 0 0</float_array>
          <technique_common>
            <accessor source="#mesh_Cmn_VR7_001-mesh-colors-mesh_Cmn_VR7-color-array" count="540" stride="4">
              <param name="R" type="float"/>
              <param name="G" type="float"/>
              <param name="B" type="float"/>
              <param name="A" type="float"/>
            </accessor>
          </technique_common>
        </source>
        <vertices id="mesh_Cmn_VR7_001-mesh-vertices">
          <input semantic="POSITION" source="#mesh_Cmn_VR7_001-mesh-positions"/>
        </vertices>
        <triangles material="Cmn_VR7_001-material" count="180">
          <input semantic="VERTEX" source="#mesh_Cmn_VR7_001-mesh-vertices" offset="0"/>
          <input semantic="NORMAL" source="#mesh_Cmn_VR7_001-mesh-normals" offset="1"/>
          <input semantic="TEXCOORD" source="#mesh_Cmn_VR7_001-mesh-map-0" offset="2" set="0"/>
          <input semantic="COLOR" source="#mesh_Cmn_VR7_001-mesh-colors-mesh_Cmn_VR7-color" offset="3" set="0"/>
          <p>0 0 0 0 1 0 1 1 2 0 2 2 2 1 3 3 110 1 4 4 0 1 5 5 1 2 6 6 3 2 7 7 2 2 8 8 1 3 9 9 22 3 10 10 3 3 11 11 22 4 12 12 23 4 13 13 3 4 14 14 22 5 15 15 33 5 16 16 23 5 17 17 33 6 18 18 34 6 19 19 23 6 20 20 33 7 21 21 44 7 22 22 34 7 23 23 44 8 24 24 45 8 25 25 34 8 26 26 44 9 27 27 55 9 28 28 45 9 29 29 55 10 30 30 56 10 31 31 45 10 32 32 55 11 33 33 66 11 34 34 56 11 35 35 66 12 36 36 67 12 37 37 56 12 38 38 56 13 39 39 67 13 40 40 57 13 41 41 56 14 42 42 57 14 43 43 46 14 44 44 45 15 45 45 56 15 46 46 46 15 47 47 45 15 48 48 46 15 49 49 35 15 50 50 34 16 51 51 45 16 52 52 35 16 53 53 34 17 54 54 35 17 55 55 24 17 56 56 23 18 57 57 34 18 58 58 24 18 59 59 23 19 60 60 24 19 61 61 5 19 62 62 3 20 63 63 23 20 64 64 5 20 65 65 3 21 66 66 5 21 67 67 4 21 68 68 2 22 69 69 3 22 70 70 4 22 71 71 4 23 72 72 111 23 73 73 2 23 74 74 4 24 75 75 5 24 76 76 6 24 77 77 6 25 78 78 112 25 79 79 4 25 80 80 5 26 81 81 7 26 82 82 6 26 83 83 5 27 84 84 24 27 85 85 7 27 86 86 24 28 87 87 25 28 88 88 7 28 89 89 24 29 90 90 35 29 91 91 25 29 92 92 35 30 93 93 36 30 94 94 25 30 95 95 35 31 96 96 46 31 97 97 36 31 98 98 46 32 99 99 47 32 100 100 36 32 101 101 46 33 102 102 57 33 103 103 47 33 104 104 57 34 105 105 58 34 106 106 47 34 107 107 57 35 108 108 68 35 109 109 58 35 110 110 67 36 111 111 68 36 112 112 57 36 113 113 68 37 114 114 69 37 115 115 58 37 116 116 58 38 117 117 69 38 118 118 59 38 119 119 58 39 120 120 59 39 121 121 48 39 122 122 47 40 123 123 58 40 124 124 48 40 125 125 47 41 126 126 48 41 127 127 37 41 128 128 36 42 129 129 47 42 130 130 37 42 131 131 36 43 132 132 37 43 133 133 26 43 134 134 25 44 135 135 36 44 136 136 26 44 137 137 25 45 138 138 26 45 139 139 9 45 140 140 7 46 141 141 25 46 142 142 9 46 143 143 7 47 144 144 9 47 145 145 8 47 146 146 6 48 147 147 7 48 148 148 8 48 149 149 8 49 150 150 113 49 151 151 6 49 152 152 8 50 153 153 9 50 154 154 10 50 155 155 10 51 156 156 114 51 157 157 8 51 158 158 9 52 159 159 11 52 160 160 10 52 161 161 9 53 162 162 26 53 163 163 11 53 164 164 26 54 165 165 27 54 166 166 11 54 167 167 26 55 168 168 37 55 169 169 27 55 170 170 37 56 171 171 38 56 172 172 27 56 173 173 37 57 174 174 48 57 175 175 38 57 176 176 48 58 177 177 49 58 178 178 38 58 179 179 48 59 180 180 59 59 181 181 49 59 182 182 59 60 183 183 60 60 184 184 49 60 185 185 59 61 186 186 70 61 187 187 60 61 188 188 69 62 189 189 70 62 190 190 59 62 191 191 70 63 192 192 71 63 193 193 60 63 194 194 60 64 195 195 71 64 196 196 61 64 197 197 60 65 198 198 61 65 199 199 50 65 200 200 49 66 201 201 60 66 202 202 50 66 203 203 49 67 204 204 50 67 205 205 39 67 206 206 38 68 207 207 49 68 208 208 39 68 209 209 38 69 210 210 39 69 211 211 28 69 212 212 27 70 213 213 38 70 214 214 28 70 215 215 27 71 216 216 28 71 217 217 13 71 218 218 11 72 219 219 27 72 220 220 13 72 221 221 11 73 222 222 13 73 223 223 12 73 224 224 10 74 225 225 11 74 226 226 12 74 227 227 12 75 228 228 115 75 229 229 10 75 230 230 12 76 231 231 13 76 232 232 14 76 233 233 14 77 234 234 116 77 235 235 12 77 236 236 13 78 237 237 15 78 238 238 14 78 239 239 13 79 240 240 28 79 241 241 15 79 242 242 28 80 243 243 29 80 244 244 15 80 245 245 28 81 246 246 39 81 247 247 29 81 248 248 39 82 249 249 40 82 250 250 29 82 251 251 39 83 252 252 50 83 253 253 40 83 254 254 50 84 255 255 51 84 256 256 40 84 257 257 50 84 258 258 61 84 259 259 51 84 260 260 61 85 261 261 62 85 262 262 51 85 263 263 61 86 264 264 72 86 265 265 62 86 266 266 71 87 267 267 72 87 268 268 61 87 269 269 72 88 270 270 73 88 271 271 62 88 272 272 62 89 273 273 73 89 274 274 63 89 275 275 62 90 276 276 63 90 277 277 52 90 278 278 51 91 279 279 62 91 280 280 52 91 281 281 51 92 282 282 52 92 283 283 41 92 284 284 40 93 285 285 51 93 286 286 41 93 287 287 40 94 288 288 41 94 289 289 30 94 290 290 29 95 291 291 40 95 292 292 30 95 293 293 29 96 294 294 30 96 295 295 17 96 296 296 15 97 297 297 29 97 298 298 17 97 299 299 15 98 300 300 17 98 301 301 16 98 302 302 14 99 303 303 15 99 304 304 16 99 305 305 16 100 306 306 117 100 307 307 14 100 308 308 16 101 309 309 17 101 310 310 18 101 311 311 18 102 312 312 118 102 313 313 16 102 314 314 17 103 315 315 19 103 316 316 18 103 317 317 17 104 318 318 30 104 319 319 19 104 320 320 30 105 321 321 31 105 322 322 19 105 323 323 30 106 324 324 41 106 325 325 31 106 326 326 41 107 327 327 42 107 328 328 31 107 329 329 41 108 330 330 52 108 331 331 42 108 332 332 52 109 333 333 53 109 334 334 42 109 335 335 52 110 336 336 63 110 337 337 53 110 338 338 63 111 339 339 64 111 340 340 53 111 341 341 63 112 342 342 74 112 343 343 64 112 344 344 73 113 345 345 74 113 346 346 63 113 347 347 74 114 348 348 75 114 349 349 64 114 350 350 64 115 351 351 75 115 352 352 65 115 353 353 64 116 354 354 65 116 355 355 54 116 356 356 53 117 357 357 64 117 358 358 54 117 359 359 53 118 360 360 54 118 361 361 43 118 362 362 42 119 363 363 53 119 364 364 43 119 365 365 42 120 366 366 43 120 367 367 32 120 368 368 31 121 369 369 42 121 370 370 32 121 371 371 31 122 372 372 32 122 373 373 21 122 374 374 19 123 375 375 31 123 376 376 21 123 377 377 19 124 378 378 21 124 379 379 20 124 380 380 18 125 381 381 19 125 382 382 20 125 383 383 20 126 384 384 119 126 385 385 18 126 386 386 75 127 387 387 76 127 388 388 65 127 389 389 77 128 390 390 78 128 391 391 79 128 392 392 78 129 393 393 80 129 394 394 79 129 395 395 78 130 396 396 99 130 397 397 80 130 398 398 99 131 399 399 100 131 400 400 80 131 401 401 99 132 402 402 120 132 403 403 100 132 404 404 80 133 405 405 100 133 406 406 82 133 407 407 80 134 408 408 82 134 409 409 81 134 410 410 79 135 411 411 80 135 412 412 81 135 413 413 81 136 414 414 82 136 415 415 83 136 416 416 82 137 417 417 84 137 418 418 83 137 419 419 82 138 420 420 101 138 421 421 84 138 422 422 100 139 423 423 101 139 424 424 82 139 425 425 100 140 426 426 121 140 427 427 101 140 428 428 101 141 429 429 102 141 430 430 84 141 431 431 101 142 432 432 122 142 433 433 102 142 434 434 84 143 435 435 102 143 436 436 86 143 437 437 84 144 438 438 86 144 439 439 85 144 440 440 83 145 441 441 84 145 442 442 85 145 443 443 85 146 444 444 86 146 445 445 87 146 446 446 86 147 447 447 88 147 448 448 87 147 449 449 86 148 450 450 103 148 451 451 88 148 452 452 102 149 453 453 103 149 454 454 86 149 455 455 102 150 456 456 123 150 457 457 103 150 458 458 103 151 459 459 104 151 460 460 88 151 461 461 103 152 462 462 124 152 463 463 104 152 464 464 88 153 465 465 104 153 466 466 90 153 467 467 88 154 468 468 90 154 469 469 89 154 470 470 87 155 471 471 88 155 472 472 89 155 473 473 89 156 474 474 90 156 475 475 91 156 476 476 90 157 477 477 92 157 478 478 91 157 479 479 90 158 480 480 105 158 481 481 92 158 482 482 104 159 483 483 105 159 484 484 90 159 485 485 104 160 486 486 125 160 487 487 105 160 488 488 105 161 489 489 106 161 490 490 92 161 491 491 105 162 492 492 126 162 493 493 106 162 494 494 92 163 495 495 106 163 496 496 94 163 497 497 92 164 498 498 94 164 499 499 93 164 500 500 91 165 501 501 92 165 502 502 93 165 503 503 93 166 504 504 94 166 505 505 95 166 506 506 94 167 507 507 96 167 508 508 95 167 509 509 94 168 510 510 107 168 511 511 96 168 512 512 106 169 513 513 107 169 514 514 94 169 515 515 106 170 516 516 127 170 517 517 107 170 518 518 107 171 519 519 108 171 520 520 96 171 521 521 107 172 522 522 128 172 523 523 108 172 524 524 96 173 525 525 108 173 526 526 98 173 527 527 96 174 528 528 98 174 529 529 97 174 530 530 95 175 531 531 96 175 532 532 97 175 533 533 108 176 534 534 109 176 535 535 98 176 536 536 108 177 537 537 129 177 538 538 109 177 539 539</p>
        </triangles>
      </mesh>
    </geometry>
    <geometry id="mesh_Cmn_VR7-mesh" name="mesh_Cmn_VR7">
      <mesh>
        <source id="mesh_Cmn_VR7-mesh-positions">
          <float_array id="mesh_Cmn_VR7-mesh-positions-array" count="390">8000 -30418.8 5812.34 17888.5 -25873.5 5812.34 9888.55 -30418.8 0 17888.5 -25873.5 -5812.34 8000 -30418.8 -5812.34 11055.7 -25873.5 -15216.9 3055.73 -30418.8 -9404.56 -9.76563e-4 -25873.5 -18809.1 -3055.73 -30418.8 -9404.56 -11055.7 -25873.5 -15216.9 -8000 -30418.8 -5812.34 -17888.5 -25873.5 -5812.34 -9888.541 -30418.8 0 -17888.5 -25873.5 5812.34 -8000 -30418.8 5812.34 -11055.7 -25873.5 15216.9 -3055.73 -30418.8 9404.56 0.001953125 -25873.5 18809.1 3055.73 -30418.8 9404.56 11055.7 -25873.5 15216.9 8000 -30418.8 5812.34 17888.5 -25873.5 5812.34 25888.6 -18794.1 0 20944.3 -18794.1 -15216.9 8000 -18794.1 -24621.5 -8000 -18794.1 -24621.5 -20944.3 -18794.1 -15216.9 -25888.5 -18794.1 0 -20944.3 -18794.1 15216.9 -8000 -18794.1 24621.5 8000 -18794.1 24621.5 20944.3 -18794.1 15216.9 25888.6 -18794.1 0 28944.3 -9873.541 -9404.56 17888.5 -9873.541 -24621.5 -9.76563e-4 -9873.541 -30433.8 -17888.5 -9873.541 -24621.5 -28944.3 -9873.541 -9404.56 -28944.3 -9873.541 9404.56 -17888.5 -9873.541 24621.5 0.002929687 -9873.541 30433.8 17888.5 -9873.541 24621.5 28944.3 -9873.541 9404.56 28944.3 -9873.541 -9404.56 25888.5 0 -18809.2 9888.541 0 -30433.8 -9888.55 0 -30433.8 -25888.5 0 -18809.1 -32000 0 0 -25888.5 0 18809.1 -9888.541 0 30433.8 9888.55 0 30433.8 25888.5 0 18809.1 32000 0 0 25888.5 0 -18809.2 17888.5 9903.541 -24621.5 0 9903.541 -30433.8 -17888.5 9903.541 -24621.5 -28944.3 9903.541 -9404.56 -28944.3 9903.541 9404.56 -17888.5 9903.541 24621.5 0.002929687 9903.541 30433.8 17888.5 9903.541 24621.5 28944.3 9903.541 9404.56 28944.3 9903.541 -9404.56 17888.5 9903.541 -24621.5 8000 18824.1 -24621.5 -8000 18824.1 -24621.5 -20944.3 18824.1 -15216.9 -25888.5 18824.1 0 -20944.3 18824.1 15216.9 -8000 18824.1 24621.5 8000 18824.1 24621.5 20944.3 18824.1 15216.9 25888.5 18824.1 0 20944.3 18824.1 -15216.9 8000 18824.1 -24621.5 8000 18824.1 -24621.5 9.76563e-4 25903.5 -18809.1 -8000 18824.1 -24621.5 -11055.7 25903.5 -15216.9 -20944.3 18824.1 -15216.9 -17888.5 25903.5 -5812.34 -25888.5 18824.1 0 -17888.5 25903.5 5812.34 -20944.3 18824.1 15216.9 -11055.7 25903.5 15216.9 -8000 18824.1 24621.5 0.001953125 25903.5 18809.1 8000 18824.1 24621.5 11055.7 25903.5 15216.9 20944.3 18824.1 15216.9 17888.5 25903.5 5812.34 25888.5 18824.1 0 17888.5 25903.5 -5812.34 20944.3 18824.1 -15216.9 11055.7 25903.5 -15216.9 8000 18824.1 -24621.5 9.76563e-4 25903.5 -18809.1 -3055.73 30448.8 -9404.56 -8000 30448.8 -5812.34 -9888.541 30448.8 0 -8000 30448.8 5812.34 -3055.73 30448.8 9404.56 3055.73 30448.8 9404.56 8000 30448.8 5812.34 9888.55 30448.8 0 8000 30448.8 -5812.34 3055.73 30448.8 -9404.56 -3055.73 30448.8 -9404.56 0.001221716 -31985 0 0.001221716 -31985 0 0.001221716 -31985 0 0.001221716 -31985 0 0.001221716 -31985 0 0.001221716 -31985 0 0.001221716 -31985 0 0.001221716 -31985 0 0.001221716 -31985 0 0.001221716 -31985 0 0.001915812 32015 0 0.001915812 32015 0 0.001915812 32015 0 0.001915812 32015 0 0.001915812 32015 0 0.001915812 32015 0 0.001915812 32015 0 0.001915812 32015 0 0.001915812 32015 0 0.001915812 32015 0</float_array>
          <technique_common>
            <accessor source="#mesh_Cmn_VR7-mesh-positions-array" count="130" stride="3">
              <param name="X" type="float"/>
              <param name="Y" type="float"/>
              <param name="Z" type="float"/>
            </accessor>
          </technique_common>
        </source>
        <source id="mesh_Cmn_VR7-mesh-normals">
          <float_array id="mesh_Cmn_VR7-mesh-normals-array" count="534">-0.4138538 0.9003571 -0.1344702 -0.1562334 0.9864149 -0.05076366 -0.4939992 0.8694624 0 -0.6626993 0.7488857 0 -0.7350489 0.6345565 0.2388331 -0.7968364 0.5459102 0.2589093 -0.7653579 0.3240617 0.5560677 -0.7728496 0.2956517 0.5615103 -0.5877835 1.22907e-6 0.8090184 -0.5877835 -1.22535e-6 0.8090184 -0.2952798 -0.2948325 0.9087815 -0.2923402 -0.3240609 0.8997343 0 -0.5459083 0.837845 0.2923402 -0.3240609 0.8997343 0.2952798 -0.2948328 0.9087814 0 0 1 -0.2952015 0.2956501 0.9085412 -0.2923402 0.3240609 0.8997343 -0.492473 0.5459095 0.6778298 -0.4542869 0.6345543 0.6252715 -0.5361372 0.7488837 0.3895258 -0.3996532 0.869463 0.2903642 -0.4138538 0.9003571 0.1344702 -0.1562334 0.9864149 0.0507642 -0.2557752 0.9003577 0.3520444 -0.09655761 0.986415 0.1328997 -0.152653 0.8694635 0.4698197 -0.2047856 0.7488835 0.6302669 0 0.6345554 0.7728775 0 0.5459083 0.837845 0.2923401 0.3240609 0.8997343 0.2952016 0.2956504 0.9085411 0.587787 -2.54008e-6 0.8090157 0.5877871 2.53238e-6 0.8090157 0.7730552 -0.2948288 0.5616598 0.765358 -0.3240617 0.5560677 0.4924731 -0.5459095 0.6778297 0.7968361 -0.5459132 0.2589039 0.9460329 -0.3240706 0 0.9555495 -0.2948308 0 0.9510558 5.22814e-6 0.3090195 0.9510558 -5.24403e-6 0.3090194 0.7728508 0.2956465 0.5615112 0.7653579 0.3240617 0.5560677 0.492473 0.5459095 0.6778298 0.4542868 0.6345542 0.6252716 0.2047856 0.7488835 0.6302669 0.152653 0.8694633 0.4698199 0 0.9003576 0.4351509 0 0.9864148 0.1642739 0.2557752 0.9003576 0.3520447 0.09655755 0.9864149 0.1329002 0.3996532 0.869463 0.2903641 0.5361372 0.7488837 0.3895258 0.7350525 0.6345537 0.2388294 0.7968361 0.5459132 0.258904 0.9460329 0.3240706 0 0.9552968 0.2956484 0 0.9510558 -5.08015e-6 -0.3090194 0.9510558 5.06476e-6 -0.3090195 0.7730552 -0.2948288 -0.5616598 0.765358 -0.3240617 -0.5560677 0.7968361 -0.5459132 -0.258904 0.4924731 -0.5459096 -0.6778297 0.2923402 -0.3240609 -0.8997343 0.2952797 -0.2948325 -0.9087815 0.5877868 3.02252e-6 -0.8090159 0.5877868 -3.0317e-6 -0.8090159 0.7728509 0.2956464 -0.5615113 0.7653579 0.3240617 -0.5560677 0.7968361 0.5459132 -0.258904 0.7350525 0.6345537 -0.2388294 0.662704 0.7488815 0 0.4939985 0.8694627 0 0.413854 0.9003572 0.1344693 0.1562336 0.9864149 0.05076313 0.413854 0.9003572 -0.1344693 0.1562336 0.9864149 -0.05076313 0.3996532 0.869463 -0.2903642 0.5361372 0.7488837 -0.3895258 0.4542869 0.6345543 -0.6252715 0.492473 0.5459095 -0.6778298 0.2923402 0.3240609 -0.8997343 0.2952015 0.2956502 -0.9085413 0 0 -1 -0.2952798 -0.2948327 -0.9087814 -0.2923402 -0.324061 -0.8997343 0 -0.5459083 -0.837845 -0.4924731 -0.5459095 -0.6778297 -0.765358 -0.3240617 -0.5560677 -0.7730552 -0.2948288 -0.5616598 -0.5877871 2.53238e-6 -0.8090157 -0.587787 -2.54008e-6 -0.8090157 -0.2952016 0.2956503 -0.9085411 -0.2923402 0.324061 -0.8997343 0 0.5459083 -0.837845 0 0.6345555 -0.7728775 0.2047856 0.7488837 -0.6302667 0.1526529 0.8694632 -0.46982 0.2557752 0.9003577 -0.3520444 0.09655761 0.9864149 -0.1329002 0 0.9003576 -0.4351509 0 0.9864148 -0.1642739 -0.152653 0.8694633 -0.4698199 -0.2047857 0.7488836 -0.6302669 -0.4542868 0.6345542 -0.6252716 -0.492473 0.5459095 -0.6778298 -0.7653579 0.3240617 -0.5560677 -0.7728508 0.2956465 -0.5615112 -0.9510558 -5.24403e-6 -0.3090194 -0.9510558 5.22814e-6 -0.3090195 -0.9555495 -0.2948308 0 -0.9460329 -0.3240706 0 -0.7968361 -0.5459132 -0.2589039 -0.7968361 -0.5459132 0.258904 -0.765358 -0.3240617 0.5560677 -0.7730538 -0.294834 0.5616589 -0.9510563 3.43095e-6 0.3090179 -0.9510563 -3.44138e-6 0.3090179 -0.9552968 0.2956484 0 -0.9460361 0.3240615 0 -0.7968364 0.5459102 -0.2589093 -0.7350489 0.6345565 -0.2388331 -0.5361372 0.7488837 -0.3895258 -0.3996532 0.869463 -0.2903641 -0.2557752 0.9003576 -0.3520447 -0.09655761 0.986415 -0.1328997 -0.4924731 -0.5459096 0.6778297 0 -0.6345554 0.7728775 0.2047856 -0.7488837 0.6302668 0.1526529 -0.8694632 0.46982 0.2557752 -0.9003576 0.3520444 0.09655755 -0.9864148 0.1329007 0.3996532 -0.869463 0.2903646 0.5361372 -0.7488837 0.3895257 0.4542868 -0.6345542 0.6252716 0.7350525 -0.6345537 0.2388297 0.662704 -0.7488815 0 0.4939985 -0.8694627 0 0.413854 -0.9003572 0.1344688 0.1562336 -0.9864149 0.05076313 0.413854 -0.9003572 -0.1344693 0.1562336 -0.9864149 -0.05076313 0.3996532 -0.869463 -0.2903646 0.5361372 -0.7488837 -0.3895255 0.7350524 -0.6345537 -0.2388295 0.4542868 -0.6345542 -0.6252716 0.2047856 -0.7488836 -0.6302669 0.152653 -0.8694633 -0.4698199 0.2557752 -0.9003577 -0.3520444 0.09655755 -0.9864148 -0.1329005 0 -0.9003576 -0.4351509 0 -0.9864149 -0.1642736 -0.152653 -0.8694633 -0.4698199 -0.2047857 -0.7488836 -0.6302669 0 -0.6345555 -0.7728775 -0.4542868 -0.6345542 -0.6252716 -0.5361372 -0.7488837 -0.3895257 -0.3996532 -0.869463 -0.2903646 -0.2557752 -0.9003576 -0.3520444 -0.09655761 -0.9864149 -0.1329002 -0.4138539 -0.9003573 -0.1344693 -0.1562334 -0.9864148 -0.0507642 -0.4939992 -0.8694624 0 -0.662704 -0.7488815 0 -0.7350525 -0.6345537 -0.2388297 -0.7350524 -0.6345537 0.2388295 -0.5361372 -0.7488837 0.3895255 -0.3996532 -0.869463 0.2903646 -0.4138539 -0.9003573 0.1344693 -0.1562334 -0.9864149 0.05076366 -0.2557752 -0.9003577 0.3520444 -0.09655761 -0.9864149 0.1329002 -0.152653 -0.8694633 0.4698197 -0.2047856 -0.7488834 0.630267 -0.4542868 -0.6345542 0.6252716 0 -0.9003576 0.4351509 0 -0.9864149 0.1642736</float_array>
          <technique_common>
            <accessor source="#mesh_Cmn_VR7-mesh-normals-array" count="178" stride="3">
              <param name="X" type="float"/>
              <param name="Y" type="float"/>
              <param name="Z" type="float"/>
            </accessor>
          </technique_common>
        </source>
        <source id="mesh_Cmn_VR7-mesh-map-0">
          <float_array id="mesh_Cmn_VR7-mesh-map-0-array" count="1080">-1.6 0.8 -1.2 1.6 -0.8 0.8 -0.8 0.8 -1.2 0 -1.6 0.8 -1.2 1.6 -0.4 1.6 -0.8 0.8 -1.2 1.6 -0.8 2.4 -0.4 1.6 -0.8 2.4 0 2.4 -0.4 1.6 -0.8 2.4 -0.4 3.2 0 2.4 -0.4 3.2 0.4 3.2 0 2.4 -0.4 3.2 0 4 0.4 3.2 0 4 0.8 4 0.4 3.2 0 4 0.4 4.8 0.8 4 0.4 4.8 1.2 4.8 0.8 4 0.4 4.8 0.8 5.6 1.2 4.8 0.8 5.6 1.6 5.6 1.2 4.8 1.2 4.8 1.6 5.6 2 4.8 1.2 4.8 2 4.8 1.6 4 0.8 4 1.2 4.8 1.6 4 0.8 4 1.6 4 1.2 3.2 0.4 3.2 0.8 4 1.2 3.2 0.4 3.2 1.2 3.2 0.8 2.4 0 2.4 0.4 3.2 0.8 2.4 0 2.4 0.8 2.4 0.4 1.6 -0.4 1.6 0 2.4 0.4 1.6 -0.4 1.6 0.4 1.6 0 0.8 -0.8 0.8 -0.4 1.6 0 0.8 0 0.8 -0.4 0 -0.8 0.8 0 0.8 0.4 1.6 0.8 0.8 0.8 0.8 0.4 0 0 0.8 0.4 1.6 1.2 1.6 0.8 0.8 0.4 1.6 0.8 2.4 1.2 1.6 0.8 2.4 1.6 2.4 1.2 1.6 0.8 2.4 1.2 3.2 1.6 2.4 1.2 3.2 2 3.2 1.6 2.4 1.2 3.2 1.6 4 2 3.2 1.6 4 2.4 4 2 3.2 1.6 4 2 4.8 2.4 4 2 4.8 2.8 4.8 2.4 4 2 4.8 2.4 5.6 2.8 4.8 1.6 5.6 2.4 5.6 2 4.8 2.4 5.6 3.2 5.6 2.8 4.8 2.8 4.8 3.2 5.6 3.6 4.8 2.8 4.8 3.6 4.8 3.2 4 2.4 4 2.8 4.8 3.2 4 2.4 4 3.2 4 2.8 3.2 2 3.2 2.4 4 2.8 3.2 2 3.2 2.8 3.2 2.4 2.4 1.6 2.4 2 3.2 2.4 2.4 1.6 2.4 2.4 2.4 2 1.6 1.2 1.6 1.6 2.4 2 1.6 1.2 1.6 2 1.6 1.6 0.8 0.8 0.8 1.2 1.6 1.6 0.8 1.6 0.8 1.2 0 0.8 0.8 1.6 0.8 2 1.6 2.4 0.8 2.4 0.8 2 0 1.6 0.8 2 1.6 2.8 1.6 2.4 0.8 2 1.6 2.4 2.4 2.8 1.6 2.4 2.4 3.2 2.4 2.8 1.6 2.4 2.4 2.8 3.2 3.2 2.4 2.8 3.2 3.6 3.2 3.2 2.4 2.8 3.2 3.2 4 3.6 3.2 3.2 4 4 4 3.6 3.2 3.2 4 3.6 4.8 4 4 3.6 4.8 4.4 4.8 4 4 3.6 4.8 4 5.6 4.4 4.8 3.2 5.6 4 5.6 3.6 4.8 4 5.6 4.8 5.6 4.4 4.8 4.4 4.8 4.8 5.6 5.2 4.8 4.4 4.8 5.2 4.8 4.8 4 4 4 4.4 4.8 4.8 4 4 4 4.8 4 4.4 3.2 3.6 3.2 4 4 4.4 3.2 3.6 3.2 4.4 3.2 4 2.4 3.2 2.4 3.6 3.2 4 2.4 3.2 2.4 4 2.4 3.6 1.6 2.8 1.6 3.2 2.4 3.6 1.6 2.8 1.6 3.6 1.6 3.2 0.8 2.4 0.8 2.8 1.6 3.2 0.8 3.2 0.8 2.8 0 2.4 0.8 3.2 0.8 3.6 1.6 4 0.8 4 0.8 3.6 0 3.2 0.8 3.6 1.6 4.4 1.6 4 0.8 3.6 1.6 4 2.4 4.4 1.6 4 2.4 4.8 2.4 4.4 1.6 4 2.4 4.4 3.2 4.8 2.4 4.4 3.2 5.2 3.2 4.8 2.4 4.4 3.2 4.8 4 5.2 3.2 4.8 4 5.6 4 5.2 3.2 4.8 4 5.2 4.8 5.6 4 5.2 4.8 6 4.8 5.6 4 5.2 4.8 5.6 5.6 6 4.8 4.8 5.6 5.6 5.6 5.2 4.8 5.6 5.6 6.4 5.6 6 4.8 6 4.8 6.4 5.6 6.8 4.8 6 4.8 6.8 4.8 6.4 4 5.6 4 6 4.8 6.4 4 5.6 4 6.4 4 6 3.2 5.2 3.2 5.6 4 6 3.2 5.2 3.2 6 3.2 5.6 2.4 4.8 2.4 5.2 3.2 5.6 2.4 4.8 2.4 5.6 2.4 5.2 1.6 4.4 1.6 4.8 2.4 5.2 1.6 4.4 1.6 5.2 1.6 4.8 0.8 4 0.8 4.4 1.6 4.8 0.8 4.8 0.8 4.4 0 4 0.8 4.8 0.8 5.2 1.6 5.6 0.8 5.6 0.8 5.2 0 4.8 0.8 5.2 1.6 6 1.6 5.6 0.8 5.2 1.6 5.6 2.4 6 1.6 5.6 2.4 6.4 2.4 6 1.6 5.6 2.4 6 3.2 6.4 2.4 6 3.2 6.8 3.2 6.4 2.4 6 3.2 6.4 4 6.8 3.2 6.4 4 7.2 4 6.8 3.2 6.4 4 6.8 4.8 7.2 4 6.8 4.8 7.6 4.8 7.2 4 6.8 4.8 7.2 5.6 7.6 4.8 6.4 5.6 7.2 5.6 6.8 4.8 7.2 5.6 8 5.6 7.6 4.8 7.6 4.8 8 5.6 8.400001 4.8 7.6 4.8 8.400001 4.8 8 4 7.2 4 7.6 4.8 8 4 7.2 4 8 4 7.6 3.2 6.8 3.2 7.2 4 7.6 3.2 6.8 3.2 7.6 3.2 7.2 2.4 6.4 2.4 6.8 3.2 7.2 2.4 6.4 2.4 7.2 2.4 6.8 1.6 6 1.6 6.4 2.4 6.8 1.6 6 1.6 6.8 1.6 6.4 0.8 5.6 0.8 6 1.6 6.4 0.8 6.4 0.8 6 0 5.6 0.8 8 5.6 8.800001 5.6 8.400001 4.8 0.8 5.6 1.2 6.4 1.6 5.6 1.2 6.4 2 6.4 1.6 5.6 1.2 6.4 1.6 7.2 2 6.4 1.6 7.2 2.4 7.2 2 6.4 1.6 7.2 2 8 2.4 7.2 2 6.4 2.4 7.2 2.8 6.4 2 6.4 2.8 6.4 2.4 5.6 1.6 5.6 2 6.4 2.4 5.6 2.4 5.6 2.8 6.4 3.2 5.6 2.8 6.4 3.6 6.4 3.2 5.6 2.8 6.4 3.2 7.2 3.6 6.4 2.4 7.2 3.2 7.2 2.8 6.4 2.4 7.2 2.8 8 3.2 7.2 3.2 7.2 4 7.2 3.6 6.4 3.2 7.2 3.6 8 4 7.2 3.6 6.4 4 7.2 4.4 6.4 3.6 6.4 4.4 6.4 4 5.6 3.2 5.6 3.6 6.4 4 5.6 4 5.6 4.4 6.4 4.8 5.6 4.4 6.4 5.2 6.4 4.8 5.6 4.4 6.4 4.8 7.2 5.2 6.4 4 7.2 4.8 7.2 4.4 6.4 4 7.2 4.4 8 4.8 7.2 4.8 7.2 5.6 7.2 5.2 6.4 4.8 7.2 5.2 8 5.6 7.2 5.2 6.4 5.6 7.2 6 6.4 5.2 6.4 6 6.4 5.6 5.6 4.8 5.6 5.2 6.4 5.6 5.6 5.6 5.6 6 6.4 6.4 5.6 6 6.4 6.8 6.4 6.4 5.6 6 6.4 6.4 7.2 6.8 6.4 5.6 7.2 6.4 7.2 6 6.4 5.6 7.2 6 8 6.4 7.2 6.4 7.2 7.2 7.2 6.8 6.4 6.4 7.2 6.8 8 7.2 7.2 6.8 6.4 7.2 7.2 7.6 6.4 6.8 6.4 7.6 6.4 7.2 5.6 6.4 5.6 6.8 6.4 7.2 5.6 7.2 5.6 7.6 6.4 8 5.6 7.6 6.4 8.400001 6.4 8 5.6 7.6 6.4 8 7.2 8.400001 6.4 7.2 7.2 8 7.2 7.6 6.4 7.2 7.2 7.6 8 8 7.2 8 7.2 8.800001 7.2 8.400001 6.4 8 7.2 8.400001 8 8.800001 7.2 8.400001 6.4 8.800001 7.2 9.2 6.4 8.400001 6.4 9.2 6.4 8.800001 5.6 8 5.6 8.400001 6.4 8.800001 5.6 8.800001 7.2 9.600001 7.2 9.2 6.4 8.800001 7.2 9.2 8 9.600001 7.2</float_array>
          <technique_common>
            <accessor source="#mesh_Cmn_VR7-mesh-map-0-array" count="540" stride="2">
              <param name="S" type="float"/>
              <param name="T" type="float"/>
            </accessor>
          </technique_common>
        </source>
        <source id="mesh_Cmn_VR7-mesh-colors-mesh_Cmn_VR7-color" name="mesh_Cmn_VR7-color">
          <float_array id="mesh_Cmn_VR7-mesh-colors-mesh_Cmn_VR7-color-array" count="2160">0 0 0 0 0 0 0 0 0 0 0 0 0 0 0 0 0 0 0 0 0 0 0 0 0 0 0 0 0 0 0 0 0 0 0 0 0 0 0 0 0 0 0 0 0 0 0 0 0 0 0 0 0 0 0 0 0 0 0 0 0 0 0 0 0 0 0 0 0 0 0 0 0 0 0 0 0 0 0 0 0 0 0 0 0 0 0 0 0 0 0 0 0 0 0 0 0 0 0 0 0 0 0 0 0 0 0 0 0 0 0 0 0 0 0 0 0 0 0 0 0 0 0 0 0 0 0 0 0 0 0 0 0 0 0 0 0 0 0 0 0 0 0 0 0 0 0 0 0 0 0 0 0 0 0 0 0 0 0 0 0 0 0 0 0 0 0 0 0 0 0 0 0 0 0 0 0 0 0 0 0 0 0 0 0 0 0 0 0 0 0 0 0 0 0 0 0 0 0 0 0 0 0 0 0 0 0 0 0 0 0 0 0 0 0 0 0 0 0 0 0 0 0 0 0 0 0 0 0 0 0 0 0 0 0 0 0 0 0 0 0 0 0 0 0 0 0 0 0 0 0 0 0 0 0 0 0 0 0 0 0 0 0 0 0 0 0 0 0 0 0 0 0 0 0 0 0 0 0 0 0 0 0 0 0 0 0 0 0 0 0 0 0 0 0 0 0 0 0 0 0 0 0 0 0 0 0 0 0 0 0 0 0 0 0 0 0 0 0 0 0 0 0 0 0 0 0 0 0 0 0 0 0 0 0 0 0 0 0 0 0 0 0 0 0 0 0 0 0 0 0 0 0 0 0 0 0 0 0 0 0 0 0 0 0 0 0 0 0 0 0 0 0 0 0 0 0 0 0 0 0 0 0 0 0 0 0 0 0 0 0 0 0 0 0 0 0 0 0 0 0 0 0 0 0 0 0 0 0 0 0 0 0 0 0 0 0 0 0 0 0 0 0 0 0 0 0 0 0 0 0 0 0 0 0 0 0 0 0 0 0 0 0 0 0 0 0 0 0 0 0 0 0 0 0 0 0 0 0 0 0 0 0 0 0 0 0 0 0 0 0 0 0 0 0 0 0 0 0 0 0 0 0 0 0 0 0 0 0 0 0 0 0 0 0 0 0 0 0 0 0 0 0 0 0 0 0 0 0 0 0 0 0 0 0 0 0 0 0 0 0 0 0 0 0 0 0 0 0 0 0 0 0 0 0 0 0 0 0 0 0 0 0 0 0 0 0 0 0 0 0 0 0 0 0 0 0 0 0 0 0 0 0 0 0 0 0 0 0 0 0 0 0 0 0 0 0 0 0 0 0 0 0 0 0 0 0 0 0 0 0 0 0 0 0 0 0 0 0 0 0 0 0 0 0 0 0 0 0 0 0 0 0 0 0 0 0 0 0 0 0 0 0 0 0 0 0 0 0 0 0 0 0 0 0 0 0 0 0 0 0 0 0 0 0 0 0 0 0 0 0 0 0 0 0 0 0 0 0 0 0 0 0 0 0 0 0 0 0 0 0 0 0 0 0 0 0 0 0 0 0 0 0 0 0 0 0 0 0 0 0 0 0 0 0 0 0 0 0 0 0 0 0 0 0 0 0 0 0 0 0 0 0 0 0 0 0 0 0 0 0 0 0 0 0 0 0 0 0 0 0 0 0 0 0 0 0 0 0 0 0 0 0 0 0 0 0 0 0 0 0 0 0 0 0 0 0 0 0 0 0 0 0 0 0 0 0 0 0 0 0 0 0 0 0 0 0 0 0 0 0 0 0 0 0 0 0 0 0 0 0 0 0 0 0 0 0 0 0 0 0 0 0 0 0 0 0 0 0 0 0 0 0 0 0 0 0 0 0 0 0 0 0 0 0 0 0 0 0 0 0 0 0 0 0 0 0 0 0 0 0 0 0 0 0 0 0 0 0 0 0 0 0 0 0 0 0 0 0 0 0 0 0 0 0 0 0 0 0 0 0 0 0 0 0 0 0 0 0 0 0 0 0 0 0 0 0 0 0 0 0 0 0 0 0 0 0 0 0 0 0 0 0 0 0 0 0 0 0 0 0 0 0 0 0 0 0 0 0 0 0 0 0 0 0 0 0 0 0 0 0 0 0 0 0 0 0 0 0 0 0 0 0 0 0 0 0 0 0 0 0 0 0 0 0 0 0 0 0 0 0 0 0 0 0 0 0 0 0 0 0 0 0 0 0 0 0 0 0 0 0 0 0 0 0 0 0 0 0 0 0 0 0 0 0 0 0 0 0 0 0 0 0 0 0 0 0 0 0 0 0 0 0 0 0 0 0 0 0 0 0 0 0 0 0 0 0 0 0 0 0 0 0 0 0 0 0 0 0 0 0 0 0 0 0 0 0 0 0 0 0 0 0 0 0 0 0 0 0 0 0 0 0 0 0 0 0 0 0 0 0 0 0 0 0 0 0 0 0 0 0 0 0 0 0 0 0 0 0 0 0 0 0 0 0 0 0 0 0 0 0 0 0 0 0 0 0 0 0 0 0 0 0 0 0 0 0 0 0 0 0 0 0 0 0 0 0 0 0 0 0 0 0 0 0 0 0 0 0 0 0 0 0 0 0 0 0 0 0 0 0 0 0 0 0 0 0 0 0 0 0 0 0 0 0 0 0 0 0 0 0 0 0 0 0 0 0 0 0 0 0 0 0 0 0 0 0 0 0 0 0 0 0 0 0 0 0 0 0 0 0 0 0 0 0 0 0 0 0 0 0 0 0 0 0 0 0 0 0 0 0 0 0 0 0 0 0 0 0 0 0 0 0 0 0 0 0 0 0 0 0 0 0 0 0 0 0 0 0 0 0 0 0 0 0 0 0 0 0 0 0 0 0 0 0 0 0 0 0 0 0 0 0 0 0 0 0 0 0 0 0 0 0 0 0 0 0 0 0 0 0 0 0 0 0 0 0 0 0 0 0 0 0 0 0 0 0 0 0 0 0 0 0 0 0 0 0 0 0 0 0 0 0 0 0 0 0 0 0 0 0 0 0 0 0 0 0 0 0 0 0 0 0 0 0 0 0 0 0 0 0 0 0 0 0 0 0 0 0 0 0 0 0 0 0 0 0 0 0 0 0 0 0 0 0 0 0 0 0 0 0 0 0 0 0 0 0 0 0 0 0 0 0 0 0 0 0 0 0 0 0 0 0 0 0 0 0 0 0 0 0 0 0 0 0 0 0 0 0 0 0 0 0 0 0 0 0 0 0 0 0 0 0 0 0 0 0 0 0 0 0 0 0 0 0 0 0 0 0 0 0 0 0 0 0 0 0 0 0 0 0 0 0 0 0 0 0 0 0 0 0 0 0 0 0 0 0 0 0 0 0 0 0 0 0 0 0 0 0 0 0 0 0 0 0 0 0 0 0 0 0 0 0 0 0 0 0 0 0 0 0 0 0 0 0 0 0 0 0 0 0 0 0 0 0 0 0 0 0 0 0 0 0 0 0 0 0 0 0 0 0 0 0 0 0 0 0 0 0 0 0 0 0 0 0 0 0 0 0 0 0 0 0 0 0 0 0 0 0 0 0 0 0 0 0 0 0 0 0 0 0 0 0 0 0 0 0 0 0 0 0 0 0 0 0 0 0 0 0 0 0 0 0 0 0 0 0 0 0 0 0 0 0 0 0 0 0 0 0 0 0 0 0 0 0 0 0 0 0 0 0 0 0 0 0 0 0 0 0 0 0 0 0 0 0 0 0 0 0 0 0 0 0 0 0 0 0 0 0 0 0 0 0 0 0 0 0 0 0 0 0 0 0 0 0 0 0 0 0 0 0 0 0 0 0 0 0 0 0 0 0 0 0 0 0 0 0 0 0 0 0 0 0 0 0 0 0 0 0 0 0 0 0 0 0 0 0 0 0 0 0 0 0 0 0 0 0 0 0 0 0 0 0 0 0 0 0 0 0 0 0 0 0 0 0 0 0 0 0 0 0 0 0 0 0 0 0 0 0 0 0 0 0 0 0 0 0 0 0 0 0 0 0 0 0 0 0 0 0 0 0 0 0 0 0 0 0 0 0 0 0 0 0 0 0 0 0 0 0 0 0 0 0 0 0 0 0 0 0 0 0 0 0 0 0 0 0 0 0 0 0 0 0 0 0 0 0 0 0 0 0 0 0 0 0 0 0 0 0 0 0 0 0 0 0 0 0 0 0 0 0 0 0 0 0 0 0 0 0 0 0 0 0 0 0 0 0 0 0 0 0 0 0 0 0 0 0 0 0 0 0 0 0 0 0 0 0 0 0 0 0 0 0 0 0 0 0 0 0 0 0 0 0 0 0 0 0 0 0 0 0 0 0 0 0 0 0 0 0 0 0 0 0 0 0 0 0 0 0 0 0 0 0 0 0 0 0 0 0 0 0 0 0 0 0 0 0 0 0 0 0 0 0 0 0 0 0 0 0 0 0 0 0 0 0 0 0 0 0 0 0 0 0 0 0 0 0 0 0 0 0 0 0 0 0 0 0 0 0 0 0 0 0 0 0 0 0 0 0 0 0 0 0 0 0 0 0 0 0 0 0 0 0 0 0 0 0 0 0 0 0 0 0 0 0 0 0 0 0 0 0 0 0 0 0 0 0 0 0 0 0 0 0 0 0 0 0 0 0 0 0 0 0 0 0 0 0 0 0 0 0 0 0 0 0 0 0 0 0 0 0 0 0 0 0 0 0 0 0 0 0 0 0 0 0 0 0 0 0 0 0 0 0 0 0 0 0 0 0 0 0 0 0 0 0 0 0 0 0 0 0 0 0 0 0 0 0 0 0 0 0 0 0 0 0 0 0 0 0 0 0 0 0 0 0 0 0 0 0 0 0 0 0 0 0 0 0 0 0 0 0 0 0 0 0 0 0 0 0 0</float_array>
          <technique_common>
            <accessor source="#mesh_Cmn_VR7-mesh-colors-mesh_Cmn_VR7-color-array" count="540" stride="4">
              <param name="R" type="float"/>
              <param name="G" type="float"/>
              <param name="B" type="float"/>
              <param name="A" type="float"/>
            </accessor>
          </technique_common>
        </source>
        <vertices id="mesh_Cmn_VR7-mesh-vertices">
          <input semantic="POSITION" source="#mesh_Cmn_VR7-mesh-positions"/>
        </vertices>
        <triangles material="Cmn_VR7-material" count="180">
          <input semantic="VERTEX" source="#mesh_Cmn_VR7-mesh-vertices" offset="0"/>
          <input semantic="NORMAL" source="#mesh_Cmn_VR7-mesh-normals" offset="1"/>
          <input semantic="TEXCOORD" source="#mesh_Cmn_VR7-mesh-map-0" offset="2" set="0"/>
          <input semantic="COLOR" source="#mesh_Cmn_VR7-mesh-colors-mesh_Cmn_VR7-color" offset="3" set="0"/>
          <p>0 0 0 0 1 0 1 1 2 0 2 2 2 1 3 3 110 1 4 4 0 1 5 5 1 2 6 6 3 2 7 7 2 2 8 8 1 3 9 9 22 3 10 10 3 3 11 11 22 4 12 12 23 4 13 13 3 4 14 14 22 5 15 15 33 5 16 16 23 5 17 17 33 6 18 18 34 6 19 19 23 6 20 20 33 7 21 21 44 7 22 22 34 7 23 23 44 8 24 24 45 8 25 25 34 8 26 26 44 9 27 27 55 9 28 28 45 9 29 29 55 10 30 30 56 10 31 31 45 10 32 32 55 11 33 33 66 11 34 34 56 11 35 35 66 12 36 36 67 12 37 37 56 12 38 38 56 13 39 39 67 13 40 40 57 13 41 41 56 14 42 42 57 14 43 43 46 14 44 44 45 15 45 45 56 15 46 46 46 15 47 47 45 15 48 48 46 15 49 49 35 15 50 50 34 16 51 51 45 16 52 52 35 16 53 53 34 17 54 54 35 17 55 55 24 17 56 56 23 18 57 57 34 18 58 58 24 18 59 59 23 19 60 60 24 19 61 61 5 19 62 62 3 20 63 63 23 20 64 64 5 20 65 65 3 21 66 66 5 21 67 67 4 21 68 68 2 22 69 69 3 22 70 70 4 22 71 71 4 23 72 72 111 23 73 73 2 23 74 74 4 24 75 75 5 24 76 76 6 24 77 77 6 25 78 78 112 25 79 79 4 25 80 80 5 26 81 81 7 26 82 82 6 26 83 83 5 27 84 84 24 27 85 85 7 27 86 86 24 28 87 87 25 28 88 88 7 28 89 89 24 29 90 90 35 29 91 91 25 29 92 92 35 30 93 93 36 30 94 94 25 30 95 95 35 31 96 96 46 31 97 97 36 31 98 98 46 32 99 99 47 32 100 100 36 32 101 101 46 33 102 102 57 33 103 103 47 33 104 104 57 34 105 105 58 34 106 106 47 34 107 107 57 35 108 108 68 35 109 109 58 35 110 110 67 36 111 111 68 36 112 112 57 36 113 113 68 37 114 114 69 37 115 115 58 37 116 116 58 38 117 117 69 38 118 118 59 38 119 119 58 39 120 120 59 39 121 121 48 39 122 122 47 40 123 123 58 40 124 124 48 40 125 125 47 41 126 126 48 41 127 127 37 41 128 128 36 42 129 129 47 42 130 130 37 42 131 131 36 43 132 132 37 43 133 133 26 43 134 134 25 44 135 135 36 44 136 136 26 44 137 137 25 45 138 138 26 45 139 139 9 45 140 140 7 46 141 141 25 46 142 142 9 46 143 143 7 47 144 144 9 47 145 145 8 47 146 146 6 48 147 147 7 48 148 148 8 48 149 149 8 49 150 150 113 49 151 151 6 49 152 152 8 50 153 153 9 50 154 154 10 50 155 155 10 51 156 156 114 51 157 157 8 51 158 158 9 52 159 159 11 52 160 160 10 52 161 161 9 53 162 162 26 53 163 163 11 53 164 164 26 54 165 165 27 54 166 166 11 54 167 167 26 55 168 168 37 55 169 169 27 55 170 170 37 56 171 171 38 56 172 172 27 56 173 173 37 57 174 174 48 57 175 175 38 57 176 176 48 58 177 177 49 58 178 178 38 58 179 179 48 59 180 180 59 59 181 181 49 59 182 182 59 60 183 183 60 60 184 184 49 60 185 185 59 61 186 186 70 61 187 187 60 61 188 188 69 62 189 189 70 62 190 190 59 62 191 191 70 63 192 192 71 63 193 193 60 63 194 194 60 64 195 195 71 64 196 196 61 64 197 197 60 65 198 198 61 65 199 199 50 65 200 200 49 66 201 201 60 66 202 202 50 66 203 203 49 67 204 204 50 67 205 205 39 67 206 206 38 68 207 207 49 68 208 208 39 68 209 209 38 69 210 210 39 69 211 211 28 69 212 212 27 70 213 213 38 70 214 214 28 70 215 215 27 71 216 216 28 71 217 217 13 71 218 218 11 72 219 219 27 72 220 220 13 72 221 221 11 73 222 222 13 73 223 223 12 73 224 224 10 74 225 225 11 74 226 226 12 74 227 227 12 75 228 228 115 75 229 229 10 75 230 230 12 76 231 231 13 76 232 232 14 76 233 233 14 77 234 234 116 77 235 235 12 77 236 236 13 78 237 237 15 78 238 238 14 78 239 239 13 79 240 240 28 79 241 241 15 79 242 242 28 80 243 243 29 80 244 244 15 80 245 245 28 81 246 246 39 81 247 247 29 81 248 248 39 82 249 249 40 82 250 250 29 82 251 251 39 83 252 252 50 83 253 253 40 83 254 254 50 84 255 255 51 84 256 256 40 84 257 257 50 84 258 258 61 84 259 259 51 84 260 260 61 85 261 261 62 85 262 262 51 85 263 263 61 86 264 264 72 86 265 265 62 86 266 266 71 87 267 267 72 87 268 268 61 87 269 269 72 88 270 270 73 88 271 271 62 88 272 272 62 89 273 273 73 89 274 274 63 89 275 275 62 90 276 276 63 90 277 277 52 90 278 278 51 91 279 279 62 91 280 280 52 91 281 281 51 92 282 282 52 92 283 283 41 92 284 284 40 93 285 285 51 93 286 286 41 93 287 287 40 94 288 288 41 94 289 289 30 94 290 290 29 95 291 291 40 95 292 292 30 95 293 293 29 96 294 294 30 96 295 295 17 96 296 296 15 97 297 297 29 97 298 298 17 97 299 299 15 98 300 300 17 98 301 301 16 98 302 302 14 99 303 303 15 99 304 304 16 99 305 305 16 100 306 306 117 100 307 307 14 100 308 308 16 101 309 309 17 101 310 310 18 101 311 311 18 102 312 312 118 102 313 313 16 102 314 314 17 103 315 315 19 103 316 316 18 103 317 317 17 104 318 318 30 104 319 319 19 104 320 320 30 105 321 321 31 105 322 322 19 105 323 323 30 106 324 324 41 106 325 325 31 106 326 326 41 107 327 327 42 107 328 328 31 107 329 329 41 108 330 330 52 108 331 331 42 108 332 332 52 109 333 333 53 109 334 334 42 109 335 335 52 110 336 336 63 110 337 337 53 110 338 338 63 111 339 339 64 111 340 340 53 111 341 341 63 112 342 342 74 112 343 343 64 112 344 344 73 113 345 345 74 113 346 346 63 113 347 347 74 114 348 348 75 114 349 349 64 114 350 350 64 115 351 351 75 115 352 352 65 115 353 353 64 116 354 354 65 116 355 355 54 116 356 356 53 117 357 357 64 117 358 358 54 117 359 359 53 118 360 360 54 118 361 361 43 118 362 362 42 119 363 363 53 119 364 364 43 119 365 365 42 120 366 366 43 120 367 367 32 120 368 368 31 121 369 369 42 121 370 370 32 121 371 371 31 122 372 372 32 122 373 373 21 122 374 374 19 123 375 375 31 123 376 376 21 123 377 377 19 124 378 378 21 124 379 379 20 124 380 380 18 125 381 381 19 125 382 382 20 125 383 383 20 126 384 384 119 126 385 385 18 126 386 386 75 127 387 387 76 127 388 388 65 127 389 389 77 128 390 390 78 128 391 391 79 128 392 392 78 129 393 393 80 129 394 394 79 129 395 395 78 130 396 396 99 130 397 397 80 130 398 398 99 131 399 399 100 131 400 400 80 131 401 401 99 132 402 402 120 132 403 403 100 132 404 404 80 133 405 405 100 133 406 406 82 133 407 407 80 134 408 408 82 134 409 409 81 134 410 410 79 135 411 411 80 135 412 412 81 135 413 413 81 136 414 414 82 136 415 415 83 136 416 416 82 137 417 417 84 137 418 418 83 137 419 419 82 138 420 420 101 138 421 421 84 138 422 422 100 139 423 423 101 139 424 424 82 139 425 425 100 140 426 426 121 140 427 427 101 140 428 428 101 141 429 429 102 141 430 430 84 141 431 431 101 142 432 432 122 142 433 433 102 142 434 434 84 143 435 435 102 143 436 436 86 143 437 437 84 144 438 438 86 144 439 439 85 144 440 440 83 145 441 441 84 145 442 442 85 145 443 443 85 146 444 444 86 146 445 445 87 146 446 446 86 147 447 447 88 147 448 448 87 147 449 449 86 148 450 450 103 148 451 451 88 148 452 452 102 149 453 453 103 149 454 454 86 149 455 455 102 150 456 456 123 150 457 457 103 150 458 458 103 151 459 459 104 151 460 460 88 151 461 461 103 152 462 462 124 152 463 463 104 152 464 464 88 153 465 465 104 153 466 466 90 153 467 467 88 154 468 468 90 154 469 469 89 154 470 470 87 155 471 471 88 155 472 472 89 155 473 473 89 156 474 474 90 156 475 475 91 156 476 476 90 157 477 477 92 157 478 478 91 157 479 479 90 158 480 480 105 158 481 481 92 158 482 482 104 159 483 483 105 159 484 484 90 159 485 485 104 160 486 486 125 160 487 487 105 160 488 488 105 161 489 489 106 161 490 490 92 161 491 491 105 162 492 492 126 162 493 493 106 162 494 494 92 163 495 495 106 163 496 496 94 163 497 497 92 164 498 498 94 164 499 499 93 164 500 500 91 165 501 501 92 165 502 502 93 165 503 503 93 166 504 504 94 166 505 505 95 166 506 506 94 167 507 507 96 167 508 508 95 167 509 509 94 168 510 510 107 168 511 511 96 168 512 512 106 169 513 513 107 169 514 514 94 169 515 515 106 170 516 516 127 170 517 517 107 170 518 518 107 171 519 519 108 171 520 520 96 171 521 521 107 172 522 522 128 172 523 523 108 172 524 524 96 173 525 525 108 173 526 526 98 173 527 527 96 174 528 528 98 174 529 529 97 174 530 530 95 175 531 531 96 175 532 532 97 175 533 533 108 176 534 534 109 176 535 535 98 176 536 536 108 177 537 537 129 177 538 538 109 177 539 539</p>
        </triangles>
      </mesh>
    </geometry>
  </library_geometries>
  <library_visual_scenes>
    <visual_scene id="Scene" name="Scene">
      <node id="mesh_Cmn_VR7_001" name="mesh_Cmn_VR7.001" type="NODE">
        <matrix sid="transform">1 0 0 0 0 7.54979e-8 -1 0 0 1 7.54979e-8 0 0 0 0 1</matrix>
        <instance_geometry url="#mesh_Cmn_VR7_001-mesh" name="mesh_Cmn_VR7.001">
          <bind_material>
            <technique_common>
              <instance_material symbol="Cmn_VR7_001-material" target="#Cmn_VR7_001-material">
                <bind_vertex_input semantic="mesh_Cmn_VR7-texcoord_1" input_semantic="TEXCOORD" input_set="0"/>
              </instance_material>
            </technique_common>
          </bind_material>
        </instance_geometry>
      </node>
      <node id="mesh_Cmn_VR7" name="mesh_Cmn_VR7" type="NODE">
        <matrix sid="transform">1 0 0 0 0 7.54979e-8 -1 0 0 1 7.54979e-8 0 0 0 0 1</matrix>
        <instance_geometry url="#mesh_Cmn_VR7-mesh" name="mesh_Cmn_VR7">
          <bind_material>
            <technique_common>
              <instance_material symbol="Cmn_VR7-material" target="#Cmn_VR7-material">
                <bind_vertex_input semantic="mesh_Cmn_VR7-texcoord" input_semantic="TEXCOORD" input_set="0"/>
              </instance_material>
            </technique_common>
          </bind_material>
        </instance_geometry>
      </node>
    </visual_scene>
  </library_visual_scenes>
  <scene>
    <instance_visual_scene url="#Scene"/>
  </scene>
</COLLADA>