<?xml version="1.0" encoding="utf-8"?>
<COLLADA xmlns="http://www.collada.org/2005/11/COLLADASchema" version="1.4.1" xmlns:xsi="http://www.w3.org/2001/XMLSchema-instance">
  <asset>
    <contributor>
      <author>Blender User</author>
      <authoring_tool>Blender 3.5.1 commit date:2023-04-24, commit time:18:11, hash:e1ccd9d4a1d3</authoring_tool>
    </contributor>
    <created>2023-05-05T17:42:21</created>
    <modified>2023-05-05T17:42:21</modified>
    <unit name="meter" meter="1"/>
    <up_axis>Z_UP</up_axis>
  </asset>
  <library_effects>
    <effect id="rr_moon-effect">
      <profile_COMMON>
        <newparam sid="rr_moon_png-surface">
          <surface type="2D">
            <init_from>rr_moon_png</init_from>
          </surface>
        </newparam>
        <newparam sid="rr_moon_png-sampler">
          <sampler2D>
            <source>rr_moon_png-surface</source>
          </sampler2D>
        </newparam>
        <technique sid="common">
          <lambert>
            <emission>
              <color sid="emission">0 0 0 1</color>
            </emission>
            <diffuse>
              <texture texture="rr_moon_png-sampler" texcoord="mesh_rr_moon-texcoord"/>
            </diffuse>
            <index_of_refraction>
              <float sid="ior">1.45</float>
            </index_of_refraction>
          </lambert>
        </technique>
      </profile_COMMON>
    </effect>
  </library_effects>
  <library_images>
    <image id="rr_moon_png" name="rr_moon_png">
      <init_from>rr_moon.png</init_from>
    </image>
  </library_images>
  <library_materials>
    <material id="rr_moon-material" name="rr_moon">
      <instance_effect url="#rr_moon-effect"/>
    </material>
  </library_materials>
  <library_geometries>
    <geometry id="mesh_rr_moon-mesh" name="mesh_rr_moon">
      <mesh>
        <source id="mesh_rr_moon-mesh-positions">
          <float_array id="mesh_rr_moon-mesh-positions-array" count="708">-2322.36 8040.43 13974.59 -1743.356 8315.531 13736.84 -2578.884 7478.21 13682.09 -1816.527 7588.39 13168.44 -2322.36 1321.55 13974.59 -1743.356 1046.45 13736.84 -2633.632 1046.45 14517.62 -1900.844 484.0503 14455.22 -2322.36 1321.55 13974.59 -2633.632 1046.45 14517.62 -2578.884 1883.77 13682.09 -3187.624 1773.59 14370.91 -3131.096 4680.99 13052.44 -3927.646 4680.99 13905.02 -3050.642 5701.462 13144.18 -3833.598 5727.412 13979.25 5027.932 8907.73 17822.86 5765.45 8004.89 17871.19 5008.559 8821.451 16798.93 5735.381 7936.97 16820.55 5304.295 4680.99 13605.17 5982.781 4680.99 14554.4 5212.558 3660.518 13685.62 5879.852 3634.568 14615.72 5027.932 454.25 17822.86 4127.023 -284.8496 17763.83 5008.559 540.5303 16798.93 4127.668 -186.1499 16715.21 1086.599 454.25 13328.8 1134.925 1357.09 12591.29 2099.246 540.5303 13481.62 2172.655 1425.01 12758.19 5304.295 4680.99 13605.17 4451.712 4680.99 12808.62 5212.558 5701.462 13685.62 4377.484 5727.412 12902.67 -3131.096 4680.99 13052.44 -2181.862 4680.99 12373.96 -3050.642 3660.518 13144.18 -2120.541 3634.568 12476.88 1086.599 8907.73 13328.8 1027.568 9646.831 14229.71 2099.246 8821.451 13481.62 2067.31 9548.132 14365.91 -3407.459 8907.73 17270.14 -2370.357 9548.132 16289.43 -3254.641 8821.451 16257.49 -903.4725 8610.11 13496.66 -1017.172 9282.27 14318.49 62.66971 8821.451 13348.18 -21.05608 9548.132 14229.07 960.0568 10193.99 15260.02 -136.7558 10086.45 15235.52 886.6534 10529.23 16380.26 -257.0755 10417.19 16329.51 -2981.353 8610.11 15318.99 -2151.718 9282.27 15313.5 -2633.632 8315.531 14517.62 -1900.844 8877.93 14455.22 4860.072 8610.11 15832.79 4038.248 9282.27 15719.09 5008.559 8821.451 16798.93 4127.668 9548.132 16715.21 3037.752 8610.11 13754.91 3043.24 9282.27 14584.55 3839.113 8315.531 14102.63 3901.513 8877.93 14835.42 -903.4725 751.8701 13496.66 -919.1179 1579.37 12822.04 62.66971 540.5303 13348.18 84.28886 1425.01 12621.36 1170.701 2389.61 12045.3 69.94688 2436.87 12080.94 1192.62 3512.252 11710.77 43.14405 3536.39 11747.74 -2853.573 2706.152 13368.88 -1983.895 2646.43 12752.27 -2578.884 1883.77 13682.09 -1816.527 1773.59 13168.44 3141.295 7782.61 13088.09 2172.655 7936.97 12758.19 1170.701 6972.37 12045.3 2257.392 6925.11 12224.27 1192.62 5849.729 11710.77 2327.445 5825.59 11897.41 4987.852 6655.828 13882.69 4206.072 6715.55 13157.86 4674.641 7478.21 14157.38 3985.829 7588.39 13548.64 4987.852 2706.152 13882.69 4206.072 2646.43 13157.86 5212.558 3660.518 13685.62 4377.484 3634.568 12902.67 3457.177 4680.99 12195.12 3402.988 3584.922 12299.34 2358.857 4680.99 11787.19 2327.445 3536.39 11897.41 3037.752 751.8701 13754.91 3141.295 1579.37 13088.09 3839.113 1046.45 14102.63 3985.828 1773.59 13548.66 3043.24 79.71045 14584.55 2067.31 -186.1499 14365.91 960.0568 -832.0098 15260.02 2050.689 -724.4697 15378.85 886.6534 -1167.25 16380.26 2027.226 -1055.21 16479.19 4860.072 751.8701 15832.79 4038.248 79.71045 15719.09 4619.894 1046.45 14992.91 3901.513 484.0503 14835.42 4860.072 751.8701 15832.79 5534.698 1579.37 15817.15 5008.559 540.5303 16798.93 5735.381 1425.01 16820.55 6311.439 2389.61 17906.96 6275.795 2436.87 16806.21 6645.962 3512.252 17928.88 6609 3536.39 16779.41 4987.852 2706.152 13882.69 5604.468 2646.43 14752.37 4674.641 1883.77 14157.38 5188.294 1773.59 14919.74 4987.852 6655.828 13882.69 5604.468 6715.55 14752.37 5212.558 5701.462 13685.62 5879.852 5727.412 14615.72 6461.26 4680.99 15620.49 6350.86 5777.058 15660.62 6722.379 4680.99 16762.65 6609 5825.59 16779.41 4860.072 8610.11 15832.79 5534.698 7782.61 15817.15 4619.894 8315.531 14992.91 5188.294 7588.39 14919.74 -2981.353 8610.11 15318.99 -3648.169 7782.61 15215.44 -3254.641 8821.451 16257.49 -3978.069 7936.97 16184.08 -4690.967 6972.37 17186.04 -4511.991 6925.11 16099.34 -5025.49 5849.729 17164.12 -4838.851 5825.59 16029.29 -2853.573 6655.828 13368.88 -3578.4 6715.55 14150.66 -2578.884 7478.21 13682.09 -3187.624 7588.39 14370.91 -4541.146 4680.99 14899.56 -4436.926 3584.922 14953.75 -4949.072 4680.99 15997.88 -4838.851 3536.39 16029.29 -4690.967 2389.61 17186.04 -4511.991 2436.87 16099.34 -4144.978 1357.09 17221.81 -3978.069 1425.01 16184.08 -2853.573 2706.152 13368.88 -3578.4 2646.43 14150.66 -3050.642 3660.518 13144.18 -3833.598 3634.568 13979.25 -1476.241 -832.0098 17396.68 -1357.416 -724.4697 16306.05 -356.0011 -1167.25 17470.08 -257.0755 -1055.21 16329.51 -136.7558 -724.4697 15235.52 1027.568 -284.8496 14229.71 -21.05608 -186.1499 14229.07 -2981.353 751.8701 15318.99 -2151.718 79.71045 15313.5 -3254.641 540.5303 16257.49 -2370.357 -186.1499 16289.43 -1115.776 4680.99 11895.48 -1075.649 5777.058 12005.88 26.38332 4680.99 11634.36 43.14405 5825.59 11747.74 69.94688 6925.11 12080.94 1134.925 8004.89 12591.29 84.28886 7936.97 12621.36 -2853.573 6655.828 13368.88 -1983.895 6715.55 12752.27 -3050.642 5701.462 13144.18 -2120.541 5727.412 12476.88 -996.7711 6825.79 12321.11 -919.1179 7782.61 12822.04 1199.933 4680.99 11599.17 -2506.551 -284.8496 17329.17 -1189.738 -415.0698 15266.05 -3407.459 454.25 17270.14 -1017.172 79.71045 14318.49 810.236 -1279.09 17546.5 -4134.683 2536.19 15073.09 -3254.641 540.5303 16257.49 -2981.353 751.8701 15318.99 -3648.169 1579.37 15215.44 -3407.459 454.25 17270.14 -5025.49 3512.252 17164.12 -5137.09 4680.99 17156.8 -2633.632 8315.531 14517.62 -4134.683 6825.79 15073.09 -2322.36 8040.43 13974.59 -4436.926 5777.058 14953.75 -4144.978 8004.89 17221.81 -3407.459 8907.73 17270.14 4674.641 7478.21 14157.38 6035.628 6825.79 15739.49 4382.143 8040.43 14413.9 6645.962 5849.729 17928.88 6311.439 6972.37 17906.96 6275.795 6925.11 16806.21 6757.563 4680.99 17936.2 4619.894 1046.45 14992.91 6035.628 2536.19 15739.49 4382.143 1321.55 14413.9 6350.86 3584.922 15660.62 5765.45 1357.09 17871.19 5027.932 454.25 17822.86 3090.683 -415.0698 15546.53 4382.143 1321.55 14413.9 1976.473 -1167.25 17622.92 3096.713 -832.0098 17696.32 3121.22 -724.4697 16599.51 4674.641 1883.77 14157.38 3283.65 2536.19 12601.58 2257.392 2436.87 12224.27 3283.65 6825.79 12601.58 4382.143 8040.43 14413.9 3402.988 5777.058 12299.34 -996.7711 2536.19 12321.11 -1075.649 3584.922 12005.88 4619.894 8315.531 14992.91 3090.683 9777.052 15546.53 2027.226 10417.19 16479.19 2050.689 10086.45 15378.85 3121.22 10086.45 16599.51 5027.932 8907.73 17822.86 -1189.738 9777.052 15266.05 -1357.416 10086.45 16306.05</float_array>
          <technique_common>
            <accessor source="#mesh_rr_moon-mesh-positions-array" count="236" stride="3">
              <param name="X" type="float"/>
              <param name="Y" type="float"/>
              <param name="Z" type="float"/>
            </accessor>
          </technique_common>
        </source>
        <source id="mesh_rr_moon-mesh-normals">
          <float_array id="mesh_rr_moon-mesh-normals-array" count="708">-0.5383459 0.5773683 -0.6138645 -0.4655952 0.6096761 -0.6414952 -0.5685126 0.506537 -0.648239 -0.4800978 0.6854387 -0.5474302 -0.330024 0.6558674 -0.6789125 -0.4689319 0.5148515 -0.7176565 -0.6115596 0.3737575 -0.6973523 -0.4817701 0.3751437 -0.7919374 -0.3222826 0.3783307 -0.8677557 -0.4944766 0.2054251 -0.844567 -0.6450244 0.2072975 -0.7355076 -0.6593615 -1.24599e-6 -0.7518262 -0.5002089 -6.46943e-6 -0.8659048 -0.3206577 2.21368e-5 -0.9471951 -0.494491 -0.2054589 -0.8445504 -0.6450558 -0.2072983 -0.7354798 -0.6115753 -0.3737609 -0.6973368 -0.4817681 -0.3751631 -0.7919294 -0.3222822 -0.3783307 -0.8677559 -0.468944 -0.5148679 -0.717637 -0.5685031 -0.5065366 -0.6482477 -0.5383807 -0.5773493 -0.6138518 -0.4655956 -0.6096802 -0.6414912 -0.3300723 -0.655862 -0.6788942 -0.4800878 -0.6854587 -0.5474139 -0.5752574 -0.609678 -0.5453181 -0.6300082 -0.6558701 -0.4158416 -0.5068324 -0.7587742 -0.4091244 -0.3527275 -0.844881 -0.4021934 -0.5340477 -0.8104066 -0.2409032 -0.6766999 -0.6917602 -0.2520819 -0.7056072 -0.7070938 -0.04622656 -0.554589 -0.8313313 -0.0363245 -0.3810968 -0.9241983 -0.02495664 -0.3670755 -0.902393 -0.2257048 -0.1832519 -0.9606349 -0.2088045 -0.1937257 -0.9809734 -0.01270967 -4.35906e-6 -1 7.15256e-7 0.01273488 -0.9809929 -0.1936258 0.02498966 -0.9242029 -0.3810834 0.2257055 -0.9023925 -0.3670763 0.2408592 -0.8104282 -0.5340348 0.0363323 -0.8313243 -0.5545989 -0.1758626 -0.9023879 -0.3934063 -0.1689836 -0.810428 -0.5609378 0.04648494 -0.7069318 -0.7057526 0.2520621 -0.6917333 -0.6767347 0.05437952 -0.5557144 -0.829593 -0.1519961 -0.5486409 -0.8221256 0.06019496 -0.3817747 -0.9222932 0.2580069 -0.5486534 -0.7952433 0.4158205 -0.6558574 -0.6300353 0.4091237 -0.7587745 -0.5068324 0.5474072 -0.685475 -0.4800723 0.5452957 -0.6096794 -0.5752771 0.4239323 -0.5325118 -0.7326067 0.4327612 -0.3783327 -0.8182801 0.558556 -0.514848 -0.6503436 0.6138758 -0.5773447 -0.5383585 0.6414878 -0.6096888 -0.465589 0.5559072 -0.7587351 -0.3395413 0.6788966 -0.6558563 -0.3300788 0.5609133 -0.8104106 -0.1691482 0.4021933 -0.8448811 -0.3527274 0.2088543 -0.9606264 -0.1832396 0.1937313 -0.9809724 0.01270312 0.3810987 -0.924197 0.02497529 0.3933089 -0.902439 -0.1758185 0.5545832 -0.8313351 0.03632485 0.7038369 -0.6917299 -0.1616275 0.7055872 -0.707113 0.04623949 -0.5383822 -0.5773419 -0.6138576 -0.5752567 -0.6096822 -0.5453141 -0.5685128 -0.5065361 -0.6482394 -0.6503292 -0.5148519 -0.5585692 -0.6300291 -0.6558486 -0.4158439 -0.7326345 -0.5325009 -0.4238981 -0.7952533 -0.5486671 -0.2579474 -0.6767082 -0.6917505 -0.2520858 -0.7055809 -0.7071202 -0.04622524 -0.829555 -0.5557752 -0.05433809 -0.8873009 -0.3810658 -0.2597806 -0.9222186 -0.3819152 -0.06044548 -0.9457227 -0.1964253 -0.2588933 -0.978874 -0.1941471 -0.06413 -0.9978603 4.17308e-6 -0.06538295 -0.9661822 -3.94851e-6 -0.2578607 -0.8755472 -0.2012207 -0.4392348 -0.8972914 -1.51967e-4 -0.4414388 -0.7728218 -0.2054258 -0.6004555 -0.7932291 6.5986e-6 -0.6089235 -0.6593544 -1.01118e-6 -0.7518324 -0.6450504 -0.2072959 -0.7354853 -0.7223333 -0.37511 -0.5809709 -0.6115853 -0.3737592 -0.6973289 -0.818311 -0.3783006 -0.4327309 -0.645055 0.2072995 -0.7354801 -0.7728143 0.2054111 -0.6004701 -0.8755985 0.2011583 -0.4391613 -0.9457276 0.1965036 -0.258816 -0.9788734 0.1941421 -0.06415498 -0.887328 0.3810143 -0.2597638 -0.9222214 0.3819136 -0.06041294 -0.7952381 0.5486559 -0.2580177 -0.8295537 0.5557768 -0.05434167 -0.7055811 0.70712 -0.04622495 -0.6767258 0.6917344 -0.2520833 -0.7326232 0.5324988 -0.4239202 -0.6300266 0.6558506 -0.4158445 -0.6503078 0.5148683 -0.5585788 -0.5752676 0.6096697 -0.5453166 -0.5383626 0.5773501 -0.6138669 -0.5685232 0.506534 -0.6482321 -0.722319 0.375119 -0.580983 -0.6115694 0.3737596 -0.6973425 -0.8182521 0.3783617 -0.4327886 0.7055886 0.7071123 0.04622608 0.8295558 0.5557734 0.0543434 0.7038028 0.6917639 -0.16163 0.8221104 0.5486532 -0.1520341 0.9222188 0.3819169 0.06043171 0.9136019 0.3810785 -0.1418125 0.9714463 0.1962755 -0.1332972 0.9788727 0.1941475 0.06414771 0.9978602 4.23298e-6 0.06538426 0.9915691 3.95524e-6 -0.1295794 0.9253773 0.20122 -0.3212282 0.9471861 -2.11083e-5 -0.3206845 0.8445459 0.2054691 -0.4944943 0.8659044 -6.19626e-6 -0.5002096 0.7518236 1.15682e-6 -0.6593644 0.7355088 0.207296 -0.6450234 0.7919666 0.3751113 -0.4817472 0.6973491 0.3737606 -0.6115614 0.7176361 0.5148642 -0.4689492 0.6482492 0.506536 -0.5685018 0.613862 0.5773501 -0.5383682 0.6415043 0.6096726 -0.4655874 0.7816635 0.5325114 -0.3247057 0.6788909 0.6558618 -0.3300795 0.8677554 0.3783311 -0.3222832 0.7355122 -0.2072999 -0.6450183 0.8445614 -0.2054112 -0.4944919 0.9253993 -0.2011858 -0.3211862 0.9714142 -0.1965034 -0.1331959 0.9788754 -0.1941421 0.06412386 0.9136186 -0.3810476 -0.1417878 0.9222195 -0.3819133 0.06044316 0.8221066 -0.5486565 -0.1520423 0.8295521 -0.5557764 0.05437123 0.7055795 -0.7071205 0.04624027 0.7038331 -0.6917349 -0.1616231 0.7816467 -0.5325202 -0.3247318 0.6789042 -0.6558493 -0.3300769 0.7176359 -0.5148688 -0.4689446 0.6415048 -0.6096721 -0.4655874 0.6138619 -0.5773503 -0.5383681 0.6482471 -0.5065356 -0.5685045 0.791929 -0.3751639 -0.4817683 0.6973349 -0.3737624 -0.6115765 0.8677553 -0.3783311 -0.322283 0.7518295 -1.99303e-6 -0.6593576 0.608923 6.68329e-6 -0.7932295 0.7355098 0.2073014 -0.6450206 0.6004551 -0.2054233 -0.7728229 0.4414398 -1.5083e-4 -0.8972909 0.6004702 0.20541 -0.7728145 0.6973425 0.3737609 -0.6115687 0.5809831 0.3751171 -0.7223198 0.432731 0.3783002 -0.8183109 0.5585646 0.5148379 -0.6503441 0.6482336 0.5065364 -0.5685192 0.6138772 0.5773442 -0.5383574 0.5453312 0.6096682 -0.5752553 0.4158179 0.6558765 -0.6300171 0.4090906 0.7587859 -0.5068421 0.2408971 0.8104101 -0.534045 0.4022259 0.8448538 -0.3527559 0.5473983 0.6854751 -0.4800825 0.6414871 0.6096896 -0.4655888 0.6788846 0.6558687 -0.3300786 0.5558858 0.7587732 -0.3394912 0.5609083 0.8104169 -0.1691341 0.7038088 0.6917592 -0.1616244 0.7055955 0.7071051 0.04623305 0.3933792 0.9023996 -0.1758631 0.2089213 0.9606178 -0.1832089 0.2256683 0.9024177 -0.3670372 0.0248593 0.924224 -0.381041 0.01269549 0.9809745 -0.1937211 -0.1758755 0.9023934 -0.3933881 -0.1691144 0.8104278 -0.5608987 0.03634417 0.8313458 -0.5545659 0.046323 0.707175 -0.7055195 -0.1615883 0.691729 -0.7038468 -0.3395226 0.758742 -0.5559092 -0.1520191 0.5486564 -0.822111 0.05437177 0.5557494 -0.8295699 -0.1417751 0.3810181 -0.9136329 0.06048595 0.3818731 -0.9222334 -0.1332813 0.1963753 -0.9714283 0.06416529 0.1940929 -0.9788824 0.2597923 0.3810474 -0.8873055 0.2580155 0.5486562 -0.7952386 0.2520593 0.6917682 -0.6767 0.4239204 0.5324993 -0.7326226 0.2587686 0.1965119 -0.9457388 0.06538242 0 -0.9978603 -0.1294891 4.67998e-5 -0.9915809 -0.3211929 0.2011877 -0.9253966 -0.3247127 0.5325109 -0.7816609 -0.7055955 0.7071049 -0.04623448 -0.534047 0.8104057 -0.2409077 -0.6767169 0.6917421 -0.2520859 -0.6300215 0.6558562 -0.4158433 -0.5068422 0.7587858 -0.4090905 -0.3527562 0.8448535 -0.402226 -0.5752486 0.6096867 -0.5453176 -0.1832256 0.9606142 -0.2089231 -0.3670601 0.9024035 -0.2256876 -0.3246936 -0.5324975 -0.7816779 -0.1615566 -0.6918042 -0.7037802 -0.1417891 -0.3810482 -0.9136183 -0.133098 -0.19652 -0.9714241 0.06413638 -0.1941355 -0.9788759 0.2588747 -0.1965256 -0.945707 0.2578627 -3.05432e-6 -0.9661816 0.439236 -0.2012216 -0.8755465 0.2597867 -0.3810418 -0.8873094 0.5809919 -0.3751463 -0.7222976 0.6973297 -0.3737579 -0.6115851 0.6482549 -0.5065367 -0.5684947 0.7354818 -0.2073023 -0.6450523 -0.3395064 -0.7587562 -0.5558996 -0.3211855 -0.2011854 -0.9253996 0.4391625 0.201159 -0.8755977</float_array>
          <technique_common>
            <accessor source="#mesh_rr_moon-mesh-normals-array" count="236" stride="3">
              <param name="X" type="float"/>
              <param name="Y" type="float"/>
              <param name="Z" type="float"/>
            </accessor>
          </technique_common>
        </source>
        <source id="mesh_rr_moon-mesh-map-0">
          <float_array id="mesh_rr_moon-mesh-map-0-array" count="2220">2 4 2.25 4 2 4.25 2.25 3.75 2.25 4 2 4 2.25 4 2.25 3.75 2.5 4 2.25 4.25 2.25 4 2.5 4 2.25 4 2.25 4.25 2 4.25 2 4.25 2.25 4.25 2 4.5 2.25 4.25 2.25 4.5 2 4.5 2.25 4.5 2.25 4.25 2.5 4.5 2.25 4.75 2.25 4.5 2.5 4.5 2.25 4.5 2.25 4.75 2 4.75 2 4.5 2.25 4.5 2 4.75 2 4.75 2.25 4.75 2 5 2.25 4.75 2.25 5 2 5 2.25 5 2.25 4.75 2.5 5 2.25 5.25 2.25 5 2.5 5 2.25 5 2.25 5.25 2 5.25 2 5 2.25 5 2 5.25 2 5.25 2.25 5.25 2 5.5 2.25 5.25 2.25 5.5 2 5.5 2.25 5.5 2.25 5.25 2.5 5.5 2.25 5.75 2.25 5.5 2.5 5.5 2.25 5.5 2.25 5.75 2 5.75 2 5.5 2.25 5.5 2 5.75 2 5.75 2.25 5.75 2 6 2.25 5.75 2.25 6 2 6 2.25 6 2.25 5.75 2.5 6 2.25 6.25 2.25 6 2.5 6 2.25 6 2.25 6.25 2 6.25 2 6 2.25 6 2 6.25 2 6.25 2.25 6.25 2 6.5 2.25 6.25 2.25 6.5 2 6.5 2.25 6.5 2.25 6.25 2.5 6.5 2.25 6.75 2.25 6.5 2.5 6.5 2.25 6.5 2.25 6.75 2 6.75 2 6.5 2.25 6.5 2 6.75 2 6.75 2.25 6.75 2 7 2.25 6.75 2.25 7 2 7 2.25 7 2.25 6.75 2.5 7 2.25 6.75 2.5 6.75 2.5 7 2.5 6.75 2.25 6.75 2.5 6.5 2.75 6.75 2.5 6.75 2.5 6.5 2.5 6.75 2.75 6.75 2.75 7 2.5 7 2.5 6.75 2.75 7 2.75 7 2.75 6.75 3 7 2.75 6.75 3 6.75 3 7 3 6.75 2.75 6.75 3 6.5 3 6.5 3.25 6.5 3 6.75 3.25 6.25 3.25 6.5 3 6.5 3 6.25 3.25 6.25 3 6.5 3 6.5 2.75 6.5 3 6.25 2.75 6.75 2.75 6.5 3 6.5 2.75 6.5 2.75 6.75 2.5 6.5 2.75 6.25 2.75 6.5 2.5 6.5 2.75 6.5 2.75 6.25 3 6.25 3 6.25 2.75 6.25 3 6 3.25 6.25 3 6.25 3 6 3.25 6 3.25 6.25 3 6 3 6 3 5.75 3.25 6 2.75 5.75 3 5.75 3 6 3 5.75 2.75 5.75 3 5.5 3.25 5.75 3 5.75 3 5.5 3 5.75 3.25 5.75 3.25 6 3.25 6 3.25 5.75 3.5 6 3.5 6 3.5 6.25 3.25 6 3.75 6.25 3.5 6.25 3.5 6 3.75 6 3.75 6.25 3.5 6 3.5 6 3.5 5.75 3.75 6 3.25 5.75 3.5 5.75 3.5 6 3.5 5.75 3.25 5.75 3.5 5.5 3.75 5.75 3.5 5.75 3.5 5.5 3.5 5.75 3.75 5.75 3.75 6 3.75 6 3.75 5.75 4 6 3.75 6.25 3.75 6 4 6 4 6.25 3.75 6.25 4 6 3.75 6.5 3.75 6.25 4 6.25 4 6.5 3.75 6.5 4 6.25 3.75 6.75 3.75 6.5 4 6.5 3.75 6.5 3.75 6.75 3.5 6.5 3.75 6.25 3.75 6.5 3.5 6.5 3.5 6.25 3.75 6.25 3.5 6.5 3.25 6.25 3.5 6.25 3.5 6.5 3.5 6.25 3.25 6.25 3.25 6 3.25 6.5 3.25 6.25 3.5 6.5 3.25 6.75 3.25 6.5 3.5 6.5 3.25 6.5 3.25 6.75 3 6.75 3 6.75 3.25 6.75 3 7 3.25 6.75 3.25 7 3 7 3.25 7 3.25 6.75 3.5 7 3.25 6.75 3.5 6.75 3.5 7 3.5 6.75 3.25 6.75 3.5 6.5 3.75 6.75 3.5 6.75 3.5 6.5 3.5 6.75 3.75 6.75 3.5 7 3.75 6.75 3.75 7 3.5 7 3.75 7 3.75 6.75 4 6.75 4 7 3.75 7 4 6.75 4 6.75 3.75 6.75 4 6.5 0 0 0.25 0 0 0.25 0.25 0 0.25 0.25 0 0.25 0.25 0.25 0.25 0 0.5 0 0.5 0.25 0.25 0.25 0.5 0 0.75 0.25 0.5 0.25 0.5 0 0.75 0 0.75 0.25 0.5 0 0.75 0.25 0.75 0 1 0 1 0.25 0.75 0.25 1 0 0.75 0.5 0.75 0.25 1 0.25 1 0.5 0.75 0.5 1 0.25 0.75 0.75 0.75 0.5 1 0.5 1 0.75 0.75 0.75 1 0.5 0.75 0.75 1 0.75 1 1 0.75 1 0.75 0.75 1 1 0.5 0.75 0.75 0.75 0.75 1 0.5 1 0.5 0.75 0.75 1 0.25 0.75 0.5 0.75 0.5 1 0.25 1 0.25 0.75 0.5 1 0.25 0.75 0.25 1 0 1 0 0.75 0.25 0.75 0 1 0.25 0.5 0.25 0.75 0 0.75 0 0.5 0.25 0.5 0 0.75 0.25 0.25 0.25 0.5 0 0.5 0.25 0.5 0.25 0.25 0.5 0.5 0.25 0.75 0.25 0.5 0.5 0.5 0.5 0.75 0.25 0.75 0.5 0.5 0.75 0.75 0.5 0.75 0.5 0.5 0.75 0.5 0.75 0.75 0.5 0.5 0.75 0.25 0.75 0.5 0.5 0.5 0.5 0.25 0.75 0.25 0.5 0.5 0.25 0.25 0.5 0.25 0.5 0.5 0 0.25 0.25 0.25 0 0.5 0 1 0.25 1 0 1.25 0.25 1 0.25 1.25 0 1.25 0.25 1.25 0.25 1 0.5 1 0.5 1.25 0.25 1.25 0.5 1 0.75 1.25 0.5 1.25 0.5 1 0.75 1 0.75 1.25 0.5 1 0.75 1.25 0.75 1 1 1 1 1.25 0.75 1.25 1 1 0.75 1.5 0.75 1.25 1 1.25 1 1.5 0.75 1.5 1 1.25 0.75 1.75 0.75 1.5 1 1.5 1 1.75 0.75 1.75 1 1.5 0.75 1.75 1 1.75 1 2 0.75 2 0.75 1.75 1 2 0.5 1.75 0.75 1.75 0.75 2 0.5 2 0.5 1.75 0.75 2 0.25 1.75 0.5 1.75 0.5 2 0.25 2 0.25 1.75 0.5 2 0.25 1.75 0.25 2 0 2 0 1.75 0.25 1.75 0 2 0.25 1.5 0.25 1.75 0 1.75 0 1.5 0.25 1.5 0 1.75 0.25 1.25 0.25 1.5 0 1.5 0.25 1.5 0.25 1.25 0.5 1.5 0.25 1.75 0.25 1.5 0.5 1.5 0.5 1.75 0.25 1.75 0.5 1.5 0.75 1.75 0.5 1.75 0.5 1.5 0.75 1.5 0.75 1.75 0.5 1.5 0.75 1.25 0.75 1.5 0.5 1.5 0.5 1.25 0.75 1.25 0.5 1.5 0.25 1.25 0.5 1.25 0.5 1.5 0 1.25 0.25 1.25 0 1.5 5 2 5 1.75 5.25 2 5 1.75 5.25 1.75 5.25 2 5.25 1.75 5 1.75 5 1.5 5.25 1.5 5.25 1.75 5 1.5 5.25 1.25 5.25 1.5 5 1.5 5 1.25 5.25 1.25 5 1.5 5.25 1.25 5 1.25 5 1 5.25 1 5.25 1.25 5 1 5.5 1.25 5.25 1.25 5.25 1 5.5 1 5.5 1.25 5.25 1 5.75 1.25 5.5 1.25 5.5 1 5.75 1 5.75 1.25 5.5 1 5.75 1.25 5.75 1 6 1 6 1.25 5.75 1.25 6 1 5.75 1.5 5.75 1.25 6 1.25 6 1.5 5.75 1.5 6 1.25 5.75 1.75 5.75 1.5 6 1.5 6 1.75 5.75 1.75 6 1.5 5.75 1.75 6 1.75 6 2 5.75 2 5.75 1.75 6 2 5.5 1.75 5.75 1.75 5.75 2 5.5 2 5.5 1.75 5.75 2 5.25 1.75 5.5 1.75 5.5 2 5.5 1.75 5.25 1.75 5.5 1.5 5.75 1.75 5.5 1.75 5.5 1.5 5.75 1.5 5.75 1.75 5.5 1.5 5.75 1.25 5.75 1.5 5.5 1.5 5.5 1.25 5.75 1.25 5.5 1.5 5.25 1.25 5.5 1.25 5.5 1.5 5.25 1.5 5.25 1.25 5.5 1.5 5.25 1.75 5.25 1.5 5.5 1.5 5.25 2 5.25 1.75 5.5 2 6 1 5.75 1 6 0.75 5.75 1 5.75 0.75 6 0.75 5.75 0.75 5.75 1 5.5 1 5.5 0.75 5.75 0.75 5.5 1 5.25 0.75 5.5 0.75 5.5 1 5.25 1 5.25 0.75 5.5 1 5.25 0.75 5.25 1 5 1 5 0.75 5.25 0.75 5 1 5.25 0.5 5.25 0.75 5 0.75 5 0.5 5.25 0.5 5 0.75 5.25 0.25 5.25 0.5 5 0.5 5 0.25 5.25 0.25 5 0.5 5.25 0.25 5 0.25 5 0 5.25 0 5.25 0.25 5 0 5.5 0.25 5.25 0.25 5.25 0 5.5 0 5.5 0.25 5.25 0 5.75 0.25 5.5 0.25 5.5 0 5.75 0 5.75 0.25 5.5 0 5.75 0.25 5.75 0 6 0 6 0.25 5.75 0.25 6 0 5.75 0.5 5.75 0.25 6 0.25 6 0.5 5.75 0.5 6 0.25 5.75 0.75 5.75 0.5 6 0.5 5.75 0.5 5.75 0.75 5.5 0.5 5.75 0.25 5.75 0.5 5.5 0.5 5.5 0.25 5.75 0.25 5.5 0.5 5.25 0.25 5.5 0.25 5.5 0.5 5.25 0.5 5.25 0.25 5.5 0.5 5.25 0.75 5.25 0.5 5.5 0.5 5.5 0.75 5.25 0.75 5.5 0.5 5.75 0.75 5.5 0.75 5.5 0.5 6 0.75 5.75 0.75 6 0.5 4 5 3.75 5 4 4.75 3.75 5.25 3.75 5 4 5 3.75 5 3.75 5.25 3.5 5 3.75 4.75 3.75 5 3.5 5 3.75 5 3.75 4.75 4 4.75 4 4.75 3.75 4.75 4 4.5 3.75 4.75 3.75 4.5 4 4.5 3.75 4.5 3.75 4.75 3.5 4.5 3.75 4.25 3.75 4.5 3.5 4.5 3.75 4.5 3.75 4.25 4 4.25 4 4.5 3.75 4.5 4 4.25 4 4.25 3.75 4.25 4 4 3.75 4.25 3.75 4 4 4 3.75 4 3.75 4.25 3.5 4 3.5 4 3.5 3.75 3.75 4 3.25 3.75 3.5 3.75 3.5 4 3.5 3.75 3.25 3.75 3.5 3.5 3.75 3.75 3.5 3.75 3.5 3.5 3.5 3.75 3.75 3.75 3.75 4 3.75 4 3.75 3.75 4 4 3.75 3.75 4 3.75 4 4 4 3.75 3.75 3.75 4 3.5 3.75 3.75 3.75 3.5 4 3.5 3.75 3.5 3.75 3.75 3.5 3.5 3.75 3.25 3.75 3.5 3.5 3.5 3.75 3.5 3.75 3.25 4 3.25 4 3.5 3.75 3.5 4 3.25 4 3.25 3.75 3.25 4 3 3.5 3.25 3.75 3.25 3.5 3.5 3.25 3.25 3.5 3.25 3.5 3.5 3.25 3.5 3.25 3.25 3.5 3.5 3.25 3.25 3.25 3.5 3 3.5 3 3.25 3.25 3.25 3 3.5 3 3.5 2.75 3.5 3 3.25 2.75 3.75 2.75 3.5 3 3.5 3 3.75 2.75 3.75 3 3.5 2.75 3.75 3 3.75 3 4 2.75 4 2.75 3.75 3 4 2.5 3.75 2.75 3.75 2.75 4 2.5 4 2.5 3.75 2.75 4 2.75 4 2.75 4.25 2.5 4 2.75 4.25 2.75 4 3 4 3 4.25 2.75 4.25 3 4 2.75 4.5 2.75 4.25 3 4.25 3 4.5 2.75 4.5 3 4.25 2.75 4.75 2.75 4.5 3 4.5 3 4.75 2.75 4.75 3 4.5 3 4.5 3.25 4.5 3 4.75 3.25 4.25 3.25 4.5 3 4.5 3 4.25 3.25 4.25 3 4.5 3.25 4.25 3 4.25 3 4 3.25 4 3.25 4.25 3 4 3 4 3 3.75 3.25 4 3 3.75 3.25 3.75 3.25 4 3.25 3.75 3 3.75 3 3.5 3.25 3.5 3.25 3.75 3 3.5 3.25 3.75 3.25 3.5 3.5 3.5 3.25 4 3.25 3.75 3.5 4 3.5 4 3.5 4.25 3.25 4 3.75 4.25 3.5 4.25 3.5 4 3.5 4.25 3.75 4.25 3.5 4.5 3.25 4.25 3.5 4.25 3.5 4.5 3.5 4.25 3.25 4.25 3.25 4 3.25 4.5 3.25 4.25 3.5 4.5 3.25 4.75 3.25 4.5 3.5 4.5 3.25 4.5 3.25 4.75 3 4.75 3 4.75 3.25 4.75 3 5 2.75 4.75 3 4.75 3 5 2.75 5 2.75 4.75 3 5 2.5 4.75 2.75 4.75 2.75 5 2.5 5 2.5 4.75 2.75 5 2.25 4.75 2.5 4.75 2.5 5 2.5 4.75 2.25 4.75 2.5 4.5 2.75 4.75 2.5 4.75 2.5 4.5 2.75 4.5 2.75 4.75 2.5 4.5 2.75 4.25 2.75 4.5 2.5 4.5 2.5 4.25 2.75 4.25 2.5 4.5 2.75 4.25 2.5 4.25 2.5 4 2.5 4.25 2.25 4.25 2.5 4 2.25 4.25 2.5 4.25 2.5 4.5 2 3 2.25 3.25 2 3.25 2 3.25 2.25 3.25 2 3.5 2.25 3.25 2.25 3.5 2 3.5 2.25 3.5 2.25 3.25 2.5 3.5 2.25 3.75 2.25 3.5 2.5 3.5 2.25 3.5 2.25 3.75 2 3.75 2 3.5 2.25 3.5 2 3.75 2 3.75 2.25 3.75 2 4 2.25 3.75 2.5 3.75 2.5 4 2.5 3.75 2.25 3.75 2.5 3.5 2.75 3.75 2.5 3.75 2.5 3.5 2.75 3.5 2.75 3.75 2.5 3.5 2.75 3.25 2.75 3.5 2.5 3.5 2.75 3.5 2.75 3.25 3 3.25 2.5 3.25 2.75 3.25 2.5 3.5 2.25 3.25 2.5 3.25 2.5 3.5 2.5 6 2.5 5.75 2.75 6 2.75 6 2.75 6.25 2.5 6 2.75 6.25 2.75 6 3 6 2.75 6 2.75 5.75 3 6 2.5 5.75 2.75 5.75 2.75 6 2.75 5.75 2.5 5.75 2.5 5.5 2.75 5.5 2.75 5.75 2.5 5.5 2.75 5.25 2.75 5.5 2.5 5.5 2.75 5.5 2.75 5.25 3 5.25 3 5.5 2.75 5.5 3 5.25 3 5.25 3.25 5.25 3 5.5 3.25 5.25 3 5.25 3 5 3.25 5 3.25 5.25 3 5 3.5 5.25 3.25 5.25 3.25 5 3.5 5 3.5 5.25 3.25 5 3.75 5.25 3.5 5.25 3.5 5 3.5 5.25 3.75 5.25 3.5 5.5 3.25 5.25 3.5 5.25 3.5 5.5 3.25 5.5 3.25 5.25 3.5 5.5 3.25 5.25 3.25 5.5 3 5.5 3.25 5.5 3.25 5.75 3 5.5 3.25 5.75 3.25 5.5 3.5 5.5 3.75 5.5 3.75 5.75 3.5 5.5 3.75 5.75 3.75 5.5 4 5.5 4 5.75 3.75 5.75 4 5.5 3.75 5.75 4 5.75 4 6 4 5.5 3.75 5.5 4 5.25 3.75 5.5 3.75 5.25 4 5.25 3.75 5.25 3.75 5.5 3.5 5.5 4 5.25 3.75 5.25 4 5 2.75 6.25 2.5 6.25 2.5 6 2.5 6.25 2.75 6.25 2.5 6.5 2.25 6.25 2.5 6.25 2.5 6.5 2.5 6.25 2.25 6.25 2.5 6 2.25 5.75 2.5 5.75 2.5 6 2.5 5.75 2.25 5.75 2.5 5.5 2.5 5.25 2.75 5.25 2.5 5.5 2.75 5.25 2.5 5.25 2.5 5 2.75 5 2.75 5.25 2.5 5 2.75 5.25 2.75 5 3 5 3 5.25 2.75 5.25 3 5 3.25 4.75 3.25 5 3 5 3.25 5 3.25 4.75 3.5 5 3.25 4.75 3.5 4.75 3.5 5 3.5 4.75 3.25 4.75 3.5 4.5 3.75 4.75 3.5 4.75 3.5 4.5 3.5 4.75 3.75 4.75 3.5 5 2.75 5.75 2.75 5.5 3 5.5 2.25 5.25 2.5 5.25 2.5 5.5 2.5 5.25 2.25 5.25 2.5 5</float_array>
          <technique_common>
            <accessor source="#mesh_rr_moon-mesh-map-0-array" count="1110" stride="2">
              <param name="S" type="float"/>
              <param name="T" type="float"/>
            </accessor>
          </technique_common>
        </source>
        <source id="mesh_rr_moon-mesh-colors-mesh_rr_moon-color" name="mesh_rr_moon-color">
          <float_array id="mesh_rr_moon-mesh-colors-mesh_rr_moon-color-array" count="4440">0 0 0 0 0 0 0 0 0 0 0 0 0 0 0 0 0 0 0 0 0 0 0 0 0 0 0 0 0 0 0 0 0 0 0 0 0 0 0 0 0 0 0 0 0 0 0 0 0 0 0 0 0 0 0 0 0 0 0 0 0 0 0 0 0 0 0 0 0 0 0 0 0 0 0 0 0 0 0 0 0 0 0 0 0 0 0 0 0 0 0 0 0 0 0 0 0 0 0 0 0 0 0 0 0 0 0 0 0 0 0 0 0 0 0 0 0 0 0 0 0 0 0 0 0 0 0 0 0 0 0 0 0 0 0 0 0 0 0 0 0 0 0 0 0 0 0 0 0 0 0 0 0 0 0 0 0 0 0 0 0 0 0 0 0 0 0 0 0 0 0 0 0 0 0 0 0 0 0 0 0 0 0 0 0 0 0 0 0 0 0 0 0 0 0 0 0 0 0 0 0 0 0 0 0 0 0 0 0 0 0 0 0 0 0 0 0 0 0 0 0 0 0 0 0 0 0 0 0 0 0 0 0 0 0 0 0 0 0 0 0 0 0 0 0 0 0 0 0 0 0 0 0 0 0 0 0 0 0 0 0 0 0 0 0 0 0 0 0 0 0 0 0 0 0 0 0 0 0 0 0 0 0 0 0 0 0 0 0 0 0 0 0 0 0 0 0 0 0 0 0 0 0 0 0 0 0 0 0 0 0 0 0 0 0 0 0 0 0 0 0 0 0 0 0 0 0 0 0 0 0 0 0 0 0 0 0 0 0 0 0 0 0 0 0 0 0 0 0 0 0 0 0 0 0 0 0 0 0 0 0 0 0 0 0 0 0 0 0 0 0 0 0 0 0 0 0 0 0 0 0 0 0 0 0 0 0 0 0 0 0 0 0 0 0 0 0 0 0 0 0 0 0 0 0 0 0 0 0 0 0 0 0 0 0 0 0 0 0 0 0 0 0 0 0 0 0 0 0 0 0 0 0 0 0 0 0 0 0 0 0 0 0 0 0 0 0 0 0 0 0 0 0 0 0 0 0 0 0 0 0 0 0 0 0 0 0 0 0 0 0 0 0 0 0 0 0 0 0 0 0 0 0 0 0 0 0 0 0 0 0 0 0 0 0 0 0 0 0 0 0 0 0 0 0 0 0 0 0 0 0 0 0 0 0 0 0 0 0 0 0 0 0 0 0 0 0 0 0 0 0 0 0 0 0 0 0 0 0 0 0 0 0 0 0 0 0 0 0 0 0 0 0 0 0 0 0 0 0 0 0 0 0 0 0 0 0 0 0 0 0 0 0 0 0 0 0 0 0 0 0 0 0 0 0 0 0 0 0 0 0 0 0 0 0 0 0 0 0 0 0 0 0 0 0 0 0 0 0 0 0 0 0 0 0 0 0 0 0 0 0 0 0 0 0 0 0 0 0 0 0 0 0 0 0 0 0 0 0 0 0 0 0 0 0 0 0 0 0 0 0 0 0 0 0 0 0 0 0 0 0 0 0 0 0 0 0 0 0 0 0 0 0 0 0 0 0 0 0 0 0 0 0 0 0 0 0 0 0 0 0 0 0 0 0 0 0 0 0 0 0 0 0 0 0 0 0 0 0 0 0 0 0 0 0 0 0 0 0 0 0 0 0 0 0 0 0 0 0 0 0 0 0 0 0 0 0 0 0 0 0 0 0 0 0 0 0 0 0 0 0 0 0 0 0 0 0 0 0 0 0 0 0 0 0 0 0 0 0 0 0 0 0 0 0 0 0 0 0 0 0 0 0 0 0 0 0 0 0 0 0 0 0 0 0 0 0 0 0 0 0 0 0 0 0 0 0 0 0 0 0 0 0 0 0 0 0 0 0 0 0 0 0 0 0 0 0 0 0 0 0 0 0 0 0 0 0 0 0 0 0 0 0 0 0 0 0 0 0 0 0 0 0 0 0 0 0 0 0 0 0 0 0 0 0 0 0 0 0 0 0 0 0 0 0 0 0 0 0 0 0 0 0 0 0 0 0 0 0 0 0 0 0 0 0 0 0 0 0 0 0 0 0 0 0 0 0 0 0 0 0 0 0 0 0 0 0 0 0 0 0 0 0 0 0 0 0 0 0 0 0 0 0 0 0 0 0 0 0 0 0 0 0 0 0 0 0 0 0 0 0 0 0 0 0 0 0 0 0 0 0 0 0 0 0 0 0 0 0 0 0 0 0 0 0 0 0 0 0 0 0 0 0 0 0 0 0 0 0 0 0 0 0 0 0 0 0 0 0 0 0 0 0 0 0 0 0 0 0 0 0 0 0 0 0 0 0 0 0 0 0 0 0 0 0 0 0 0 0 0 0 0 0 0 0 0 0 0 0 0 0 0 0 0 0 0 0 0 0 0 0 0 0 0 0 0 0 0 0 0 0 0 0 0 0 0 0 0 0 0 0 0 0 0 0 0 0 0 0 0 0 0 0 0 0 0 0 0 0 0 0 0 0 0 0 0 0 0 0 0 0 0 0 0 0 0 0 0 0 0 0 0 0 0 0 0 0 0 0 0 0 0 0 0 0 0 0 0 0 0 0 0 0 0 0 0 0 0 0 0 0 0 0 0 0 0 0 0 0 0 0 0 0 0 0 0 0 0 0 0 0 0 0 0 0 0 0 0 0 0 0 0 0 0 0 0 0 0 0 0 0 0 0 0 0 0 0 0 0 0 0 0 0 0 0 0 0 0 0 0 0 0 0 0 0 0 0 0 0 0 0 0 0 0 0 0 0 0 0 0 0 0 0 0 0 0 0 0 0 0 0 0 0 0 0 0 0 0 0 0 0 0 0 0 0 0 0 0 0 0 0 0 0 0 0 0 0 0 0 0 0 0 0 0 0 0 0 0 0 0 0 0 0 0 0 0 0 0 0 0 0 0 0 0 0 0 0 0 0 0 0 0 0 0 0 0 0 0 0 0 0 0 0 0 0 0 0 0 0 0 0 0 0 0 0 0 0 0 0 0 0 0 0 0 0 0 0 0 0 0 0 0 0 0 0 0 0 0 0 0 0 0 0 0 0 0 0 0 0 0 0 0 0 0 0 0 0 0 0 0 0 0 0 0 0 0 0 0 0 0 0 0 0 0 0 0 0 0 0 0 0 0 0 0 0 0 0 0 0 0 0 0 0 0 0 0 0 0 0 0 0 0 0 0 0 0 0 0 0 0 0 0 0 0 0 0 0 0 0 0 0 0 0 0 0 0 0 0 0 0 0 0 0 0 0 0 0 0 0 0 0 0 0 0 0 0 0 0 0 0 0 0 0 0 0 0 0 0 0 0 0 0 0 0 0 0 0 0 0 0 0 0 0 0 0 0 0 0 0 0 0 0 0 0 0 0 0 0 0 0 0 0 0 0 0 0 0 0 0 0 0 0 0 0 0 0 0 0 0 0 0 0 0 0 0 0 0 0 0 0 0 0 0 0 0 0 0 0 0 0 0 0 0 0 0 0 0 0 0 0 0 0 0 0 0 0 0 0 0 0 0 0 0 0 0 0 0 0 0 0 0 0 0 0 0 0 0 0 0 0 0 0 0 0 0 0 0 0 0 0 0 0 0 0 0 0 0 0 0 0 0 0 0 0 0 0 0 0 0 0 0 0 0 0 0 0 0 0 0 0 0 0 0 0 0 0 0 0 0 0 0 0 0 0 0 0 0 0 0 0 0 0 0 0 0 0 0 0 0 0 0 0 0 0 0 0 0 0 0 0 0 0 0 0 0 0 0 0 0 0 0 0 0 0 0 0 0 0 0 0 0 0 0 0 0 0 0 0 0 0 0 0 0 0 0 0 0 0 0 0 0 0 0 0 0 0 0 0 0 0 0 0 0 0 0 0 0 0 0 0 0 0 0 0 0 0 0 0 0 0 0 0 0 0 0 0 0 0 0 0 0 0 0 0 0 0 0 0 0 0 0 0 0 0 0 0 0 0 0 0 0 0 0 0 0 0 0 0 0 0 0 0 0 0 0 0 0 0 0 0 0 0 0 0 0 0 0 0 0 0 0 0 0 0 0 0 0 0 0 0 0 0 0 0 0 0 0 0 0 0 0 0 0 0 0 0 0 0 0 0 0 0 0 0 0 0 0 0 0 0 0 0 0 0 0 0 0 0 0 0 0 0 0 0 0 0 0 0 0 0 0 0 0 0 0 0 0 0 0 0 0 0 0 0 0 0 0 0 0 0 0 0 0 0 0 0 0 0 0 0 0 0 0 0 0 0 0 0 0 0 0 0 0 0 0 0 0 0 0 0 0 0 0 0 0 0 0 0 0 0 0 0 0 0 0 0 0 0 0 0 0 0 0 0 0 0 0 0 0 0 0 0 0 0 0 0 0 0 0 0 0 0 0 0 0 0 0 0 0 0 0 0 0 0 0 0 0 0 0 0 0 0 0 0 0 0 0 0 0 0 0 0 0 0 0 0 0 0 0 0 0 0 0 0 0 0 0 0 0 0 0 0 0 0 0 0 0 0 0 0 0 0 0 0 0 0 0 0 0 0 0 0 0 0 0 0 0 0 0 0 0 0 0 0 0 0 0 0 0 0 0 0 0 0 0 0 0 0 0 0 0 0 0 0 0 0 0 0 0 0 0 0 0 0 0 0 0 0 0 0 0 0 0 0 0 0 0 0 0 0 0 0 0 0 0 0 0 0 0 0 0 0 0 0 0 0 0 0 0 0 0 0 0 0 0 0 0 0 0 0 0 0 0 0 0 0 0 0 0 0 0 0 0 0 0 0 0 0 0 0 0 0 0 0 0 0 0 0 0 0 0 0 0 0 0 0 0 0 0 0 0 0 0 0 0 0 0 0 0 0 0 0 0 0 0 0 0 0 0 0 0 0 0 0 0 0 0 0 0 0 0 0 0 0 0 0 0 0 0 0 0 0 0 0 0 0 0 0 0 0 0 0 0 0 0 0 0 0 0 0 0 0 0 0 0 0 0 0 0 0 0 0 0 0 0 0 0 0 0 0 0 0 0 0 0 0 0 0 0 0 0 0 0 0 0 0 0 0 0 0 0 0 0 0 0 0 0 0 0 0 0 0 0 0 0 0 0 0 0 0 0 0 0 0 0 0 0 0 0 0 0 0 0 0 0 0 0 0 0 0 0 0 0 0 0 0 0 0 0 0 0 0 0 0 0 0 0 0 0 0 0 0 0 0 0 0 0 0 0 0 0 0 0 0 0 0 0 0 0 0 0 0 0 0 0 0 0 0 0 0 0 0 0 0 0 0 0 0 0 0 0 0 0 0 0 0 0 0 0 0 0 0 0 0 0 0 0 0 0 0 0 0 0 0 0 0 0 0 0 0 0 0 0 0 0 0 0 0 0 0 0 0 0 0 0 0 0 0 0 0 0 0 0 0 0 0 0 0 0 0 0 0 0 0 0 0 0 0 0 0 0 0 0 0 0 0 0 0 0 0 0 0 0 0 0 0 0 0 0 0 0 0 0 0 0 0 0 0 0 0 0 0 0 0 0 0 0 0 0 0 0 0 0 0 0 0 0 0 0 0 0 0 0 0 0 0 0 0 0 0 0 0 0 0 0 0 0 0 0 0 0 0 0 0 0 0 0 0 0 0 0 0 0 0 0 0 0 0 0 0 0 0 0 0 0 0 0 0 0 0 0 0 0 0 0 0 0 0 0 0 0 0 0 0 0 0 0 0 0 0 0 0 0 0 0 0 0 0 0 0 0 0 0 0 0 0 0 0 0 0 0 0 0 0 0 0 0 0 0 0 0 0 0 0 0 0 0 0 0 0 0 0 0 0 0 0 0 0 0 0 0 0 0 0 0 0 0 0 0 0 0 0 0 0 0 0 0 0 0 0 0 0 0 0 0 0 0 0 0 0 0 0 0 0 0 0 0 0 0 0 0 0 0 0 0 0 0 0 0 0 0 0 0 0 0 0 0 0 0 0 0 0 0 0 0 0 0 0 0 0 0 0 0 0 0 0 0 0 0 0 0 0 0 0 0 0 0 0 0 0 0 0 0 0 0 0 0 0 0 0 0 0 0 0 0 0 0 0 0 0 0 0 0 0 0 0 0 0 0 0 0 0 0 0 0 0 0 0 0 0 0 0 0 0 0 0 0 0 0 0 0 0 0 0 0 0 0 0 0 0 0 0 0 0 0 0 0 0 0 0 0 0 0 0 0 0 0 0 0 0 0 0 0 0 0 0 0 0 0 0 0 0 0 0 0 0 0 0 0 0 0 0 0 0 0 0 0 0 0 0 0 0 0 0 0 0 0 0 0 0 0 0 0 0 0 0 0 0 0 0 0 0 0 0 0 0 0 0 0 0 0 0 0 0 0 0 0 0 0 0 0 0 0 0 0 0 0 0 0 0 0 0 0 0 0 0 0 0 0 0 0 0 0 0 0 0 0 0 0 0 0 0 0 0 0 0 0 0 0 0 0 0 0 0 0 0 0 0 0 0 0 0 0 0 0 0 0 0 0 0 0 0 0 0 0 0 0 0 0 0 0 0 0 0 0 0 0 0 0 0 0 0 0 0 0 0 0 0 0 0 0 0 0 0 0 0 0 0 0 0 0 0 0 0 0 0 0 0 0 0 0 0 0 0 0 0 0 0 0 0 0 0 0 0 0 0 0 0 0 0 0 0 0 0 0 0 0 0 0 0 0 0 0 0 0 0 0 0 0 0 0 0 0 0 0 0 0 0 0 0 0 0 0 0 0 0 0 0 0 0 0 0 0 0 0 0 0 0 0 0 0 0 0 0 0 0 0 0 0 0 0 0 0 0 0 0 0 0 0 0 0 0 0 0 0 0 0 0 0 0 0 0 0 0 0 0 0 0 0 0 0 0 0 0 0 0 0 0 0 0 0 0 0 0 0 0 0 0 0 0 0 0 0 0 0 0 0 0 0 0 0 0 0 0 0 0 0 0 0 0 0 0 0 0 0 0 0 0 0 0 0 0 0 0 0 0 0 0 0 0 0 0 0 0 0 0 0 0 0 0 0 0 0 0 0 0 0 0 0 0 0 0 0 0 0 0 0 0 0 0 0 0 0 0 0 0 0 0 0 0 0 0 0 0 0 0 0 0 0 0 0 0 0 0 0 0 0 0 0 0 0 0 0 0 0 0 0 0 0 0 0 0 0 0 0 0 0 0 0 0 0 0 0 0 0 0 0 0 0 0 0 0 0 0 0 0 0 0 0 0 0 0 0 0 0 0 0 0 0 0 0 0 0 0 0 0 0 0 0 0 0 0 0 0 0 0 0 0 0 0 0 0 0 0 0 0 0 0 0 0 0 0 0 0 0 0 0 0 0 0 0 0 0 0 0 0 0 0 0 0 0 0 0 0 0 0 0 0 0 0 0 0 0 0 0 0 0 0 0 0 0 0 0 0 0 0 0 0 0 0 0 0 0 0 0 0 0 0 0 0 0 0 0 0 0 0 0 0 0 0 0 0 0 0 0 0 0 0 0 0 0 0 0 0 0 0 0 0 0 0 0 0 0 0 0 0 0 0 0 0 0 0 0 0 0 0 0 0 0 0 0 0 0 0 0 0 0 0 0 0 0 0 0 0 0 0 0 0 0 0 0 0 0 0 0 0 0 0 0 0 0 0 0 0 0 0 0 0 0 0 0 0 0 0 0 0 0 0 0 0 0 0 0 0 0 0 0 0 0 0 0 0 0 0 0 0 0 0 0 0 0 0 0 0 0 0 0 0 0 0 0 0 0 0 0 0 0 0 0 0 0 0 0 0 0 0 0 0 0 0 0 0 0 0 0 0 0 0 0 0 0 0 0 0 0 0 0 0 0 0 0 0 0 0 0 0 0 0 0 0 0 0 0 0 0 0 0 0 0 0 0 0 0 0 0 0 0 0 0 0 0 0 0 0 0 0 0 0 0 0 0 0 0 0 0 0 0 0 0 0 0 0 0 0 0 0 0 0 0 0 0 0 0 0 0 0 0 0 0 0 0 0 0 0 0 0 0 0 0 0 0 0 0 0 0 0 0 0 0 0 0 0 0 0 0 0 0 0 0 0 0 0 0 0 0 0 0 0 0 0 0 0 0 0 0 0 0 0 0 0 0 0 0 0 0 0 0 0 0 0 0 0 0 0 0 0 0 0 0 0 0 0 0 0 0 0 0 0 0 0 0 0 0 0 0 0 0 0 0 0 0 0 0 0 0 0 0 0 0 0 0 0 0 0 0 0 0 0 0 0 0 0 0 0 0 0 0 0 0 0 0 0 0 0 0 0 0 0 0 0 0 0 0 0 0 0 0 0 0 0 0 0 0 0 0 0 0 0 0 0 0 0 0 0 0 0 0 0 0 0 0 0 0 0 0 0 0 0 0 0 0 0 0 0 0 0 0 0 0 0 0 0 0 0 0 0 0 0 0 0 0 0 0 0 0 0 0 0 0 0 0 0 0 0 0 0 0 0 0 0 0 0 0 0 0 0 0 0 0 0 0 0 0 0 0 0 0 0 0 0 0 0 0 0 0 0 0 0 0 0 0 0 0 0 0 0 0 0 0 0 0 0 0 0 0 0 0 0 0 0 0 0 0 0 0 0 0 0 0 0 0 0 0 0 0 0 0 0 0 0 0 0 0 0 0 0 0 0 0 0 0 0 0 0 0 0 0 0 0 0 0 0 0 0 0 0 0 0 0 0 0 0 0 0 0 0 0 0 0 0 0 0 0 0 0 0 0 0 0 0 0 0 0 0 0 0 0 0 0 0 0 0 0 0 0 0 0 0 0 0 0 0 0 0 0 0 0 0 0 0 0 0 0 0 0 0 0 0 0 0 0 0 0 0 0 0 0 0 0 0 0 0 0 0 0 0 0 0 0 0 0 0 0 0 0 0 0 0 0 0 0 0 0 0 0 0 0 0 0 0 0 0 0 0 0 0 0 0 0 0 0 0 0 0 0 0 0 0 0 0 0 0 0 0 0 0 0 0 0 0 0 0 0 0 0 0 0 0 0 0 0 0 0 0 0 0 0 0 0 0 0 0 0 0 0 0 0 0 0 0 0 0 0 0 0 0 0 0 0 0 0 0 0 0 0 0 0 0 0 0 0 0 0 0 0 0 0 0 0 0 0 0 0 0 0 0 0 0 0 0 0 0 0 0 0 0 0 0 0 0 0 0 0 0 0 0 0 0 0 0 0 0 0 0 0 0 0 0 0 0 0 0 0 0 0 0 0 0 0 0 0 0 0 0 0 0 0 0 0 0 0 0 0 0 0 0 0 0 0 0 0 0 0 0 0 0 0 0 0 0 0 0 0 0 0 0 0 0 0 0 0 0 0 0 0 0 0 0 0 0 0 0 0 0 0 0 0 0 0 0 0 0 0 0 0 0 0 0 0 0 0 0 0 0 0 0 0 0 0 0 0 0 0 0 0 0 0 0 0 0 0 0 0 0 0 0 0 0 0 0 0 0 0 0 0 0 0 0 0 0 0 0 0 0 0 0 0 0 0 0 0 0 0 0 0 0 0 0 0 0 0 0 0 0 0 0 0 0 0 0 0 0 0 0 0 0 0 0 0 0 0 0 0 0 0 0 0 0 0 0 0 0 0 0 0 0 0 0 0 0 0 0 0 0 0 0 0 0 0 0 0 0 0 0 0 0 0 0 0 0 0 0 0 0 0 0 0 0 0 0 0 0 0 0 0 0 0 0 0 0 0 0 0 0 0 0 0 0 0 0 0 0 0 0 0 0 0 0 0 0 0 0 0 0 0 0 0 0 0 0 0 0 0 0 0 0 0 0 0 0 0 0 0 0 0 0 0 0 0 0 0 0 0 0 0 0 0 0 0 0 0 0 0 0 0 0 0 0 0 0 0 0 0 0 0 0 0 0 0 0 0 0 0 0 0 0 0 0 0 0 0 0 0 0 0 0 0 0 0 0 0 0 0 0 0 0 0 0 0 0 0 0 0 0 0 0 0 0 0 0 0 0 0 0 0 0 0 0 0 0 0 0 0 0 0 0 0 0 0 0 0 0 0 0 0 0 0 0 0 0</float_array>
          <technique_common>
            <accessor source="#mesh_rr_moon-mesh-colors-mesh_rr_moon-color-array" count="1110" stride="4">
              <param name="R" type="float"/>
              <param name="G" type="float"/>
              <param name="B" type="float"/>
              <param name="A" type="float"/>
            </accessor>
          </technique_common>
        </source>
        <vertices id="mesh_rr_moon-mesh-vertices">
          <input semantic="POSITION" source="#mesh_rr_moon-mesh-positions"/>
        </vertices>
        <triangles material="rr_moon-material" count="370">
          <input semantic="VERTEX" source="#mesh_rr_moon-mesh-vertices" offset="0"/>
          <input semantic="NORMAL" source="#mesh_rr_moon-mesh-normals" offset="1"/>
          <input semantic="TEXCOORD" source="#mesh_rr_moon-mesh-map-0" offset="2" set="0"/>
          <input semantic="COLOR" source="#mesh_rr_moon-mesh-colors-mesh_rr_moon-color" offset="3" set="0"/>
          <p>0 0 0 0 1 1 1 1 2 2 2 2 58 3 3 3 1 1 4 4 0 0 5 5 1 1 6 6 58 3 7 7 47 4 8 8 3 5 9 9 1 1 10 10 47 4 11 11 1 1 12 12 3 5 13 13 2 2 14 14 2 2 15 15 3 5 16 16 177 6 17 17 3 5 18 18 178 7 19 19 177 6 20 20 178 7 21 21 3 5 22 22 181 8 23 23 180 9 24 24 178 7 25 25 181 8 26 26 178 7 27 27 180 9 28 28 179 10 29 29 177 6 30 30 178 7 31 31 179 10 32 32 179 10 33 33 180 9 34 34 36 11 35 35 180 9 36 36 37 12 37 37 36 11 38 38 37 12 39 39 180 9 40 40 170 13 41 41 39 14 42 42 37 12 43 43 170 13 44 44 37 12 45 45 39 14 46 46 38 15 47 47 36 11 48 48 37 12 49 49 38 15 50 50 38 15 51 51 39 14 52 52 75 16 53 53 39 14 54 54 76 17 55 55 75 16 56 56 76 17 57 57 39 14 58 58 226 18 59 59 78 19 60 60 76 17 61 61 226 18 62 62 76 17 63 63 78 19 64 64 77 20 65 65 75 16 66 66 76 17 67 67 77 20 68 68 77 20 69 69 78 19 70 70 4 21 71 71 78 19 72 72 5 22 73 73 4 21 74 74 5 22 75 75 78 19 76 76 67 23 77 77 7 24 78 78 5 22 79 79 67 23 80 80 5 22 81 81 7 24 82 82 6 25 83 83 4 21 84 84 5 22 85 85 6 25 86 86 6 25 87 87 7 24 88 88 166 26 89 89 7 24 90 90 167 27 91 91 166 26 92 92 167 27 93 93 7 24 94 94 185 28 95 95 169 29 96 96 167 27 97 97 185 28 98 98 167 27 99 99 169 29 100 100 168 30 101 101 166 26 102 102 167 27 103 103 168 30 104 104 168 30 105 105 169 29 106 106 186 31 107 107 169 29 108 108 184 32 109 109 186 31 110 110 184 32 111 111 169 29 112 112 159 33 113 113 169 29 114 114 160 34 115 115 159 33 116 116 160 34 117 117 169 29 118 118 185 28 119 119 162 35 120 120 160 34 121 121 185 28 122 122 160 34 123 123 162 35 124 124 161 36 125 125 159 33 126 126 160 34 127 127 161 36 128 128 161 36 129 129 162 35 130 130 188 37 131 131 162 35 132 132 105 38 133 133 188 37 134 134 105 38 135 135 162 35 136 136 103 39 137 137 103 39 138 138 104 40 139 139 105 38 140 140 102 41 141 141 104 40 142 142 103 39 143 143 164 42 144 144 102 41 145 145 103 39 146 146 103 39 147 147 163 43 148 148 164 42 149 149 162 35 150 150 163 43 151 151 103 39 152 152 163 43 153 153 162 35 154 154 185 28 155 155 165 44 156 156 163 43 157 157 185 28 158 158 163 43 159 159 165 44 160 160 164 42 161 161 164 42 162 162 165 44 163 163 28 45 164 164 102 41 165 165 164 42 166 166 28 45 167 167 30 46 168 168 102 41 169 169 28 45 170 170 28 45 171 171 29 47 172 172 30 46 173 173 70 48 174 174 29 47 175 175 28 45 176 176 29 47 177 177 70 48 178 178 71 49 179 179 31 50 180 180 29 47 181 181 71 49 182 182 29 47 183 183 31 50 184 184 30 46 185 185 30 46 186 186 31 50 187 187 97 51 188 188 97 51 189 189 101 52 190 190 30 46 191 191 110 53 192 192 101 52 193 193 97 51 194 194 99 54 195 195 110 53 196 196 97 51 197 197 97 51 198 198 98 55 199 199 99 54 200 200 31 50 201 201 98 55 202 202 97 51 203 203 98 55 204 204 31 50 205 205 221 56 206 206 100 57 207 207 98 55 208 208 221 56 209 209 98 55 210 210 100 57 211 211 99 54 212 212 99 54 213 213 100 57 214 214 216 58 215 215 110 53 216 216 99 54 217 217 216 58 218 218 109 59 219 219 110 53 220 220 216 58 221 221 108 60 222 222 110 53 223 223 109 59 224 224 107 61 225 225 108 60 226 226 109 59 227 227 27 62 228 228 108 60 229 229 107 61 230 230 108 60 231 231 27 62 232 232 215 63 233 233 110 53 234 234 108 60 235 235 215 63 236 236 101 52 237 237 110 53 238 238 215 63 239 239 102 41 240 240 101 52 241 241 215 63 242 242 101 52 243 243 102 41 244 244 30 46 245 245 104 40 246 246 102 41 247 247 215 63 248 248 106 64 249 249 104 40 250 250 215 63 251 251 104 40 252 252 106 64 253 253 105 38 254 254 105 38 255 255 106 64 256 256 188 37 257 257 106 64 258 258 217 65 259 259 188 37 260 260 217 65 261 261 106 64 262 262 218 66 263 263 106 64 264 264 219 67 265 265 218 66 266 266 219 67 267 267 106 64 268 268 215 63 269 269 27 62 270 270 219 67 271 271 215 63 272 272 219 67 273 273 27 62 274 274 218 66 275 275 27 62 276 276 25 68 277 277 218 66 278 278 25 68 279 279 27 62 280 280 26 69 281 281 24 70 282 282 25 68 283 283 26 69 284 284 26 69 285 285 27 62 286 286 107 61 287 287 8 71 288 288 9 72 289 289 10 73 290 290 9 72 291 291 11 74 292 292 10 73 293 293 11 74 294 294 9 72 295 295 191 75 296 296 192 76 297 297 11 74 298 298 191 75 299 299 154 77 300 300 192 76 301 301 191 75 302 302 190 78 303 303 154 77 304 304 191 75 305 305 154 77 306 306 190 78 307 307 193 79 308 308 153 80 309 309 154 77 310 310 193 79 311 311 152 81 312 312 154 77 313 313 153 80 314 314 151 82 315 315 152 81 316 316 153 80 317 317 150 83 318 318 152 81 319 319 151 82 320 320 194 84 321 321 150 83 322 322 151 82 323 323 150 83 324 324 194 84 325 325 195 85 326 326 149 86 327 327 150 83 328 328 195 85 329 329 148 87 330 330 150 83 331 331 149 86 332 332 147 88 333 333 148 87 334 334 149 86 335 335 158 89 336 336 148 87 337 337 147 88 338 338 13 90 339 339 158 89 340 340 147 88 341 341 158 89 342 342 13 90 343 343 12 91 344 344 157 92 345 345 158 89 346 346 12 91 347 347 156 93 348 348 158 89 349 349 157 92 350 350 155 94 351 351 156 93 352 352 157 92 353 353 11 74 354 354 156 93 355 355 155 94 356 356 156 93 357 357 11 74 358 358 189 95 359 359 158 89 360 360 156 93 361 361 189 95 362 362 148 87 363 363 158 89 364 364 189 95 365 365 150 83 366 366 148 87 367 367 189 95 368 368 152 81 369 369 150 83 370 370 189 95 371 371 154 77 372 372 152 81 373 373 189 95 374 374 192 76 375 375 154 77 376 376 189 95 377 377 11 74 378 378 192 76 379 379 189 95 380 380 10 73 381 381 11 74 382 382 155 94 383 383 12 91 384 384 13 90 385 385 14 96 386 386 13 90 387 387 15 97 388 388 14 96 389 389 15 97 390 390 13 90 391 391 147 88 392 392 199 98 393 393 15 97 394 394 147 88 395 395 142 99 396 396 199 98 397 397 147 88 398 398 149 86 399 399 142 99 400 400 147 88 401 401 142 99 402 402 149 86 403 403 195 85 404 404 141 100 405 405 142 99 406 406 195 85 407 407 140 101 408 408 142 99 409 409 141 100 410 410 139 102 411 411 140 101 412 412 141 100 413 413 138 103 414 414 140 101 415 415 139 102 416 416 200 104 417 417 138 103 418 418 139 102 419 419 138 103 420 420 200 104 421 421 201 105 422 422 137 106 423 423 138 103 424 424 201 105 425 425 136 107 426 426 138 103 427 427 137 106 428 428 135 108 429 429 136 107 430 430 137 106 431 431 146 109 432 432 136 107 433 433 135 108 434 434 196 110 435 435 146 109 436 436 135 108 437 437 146 109 438 438 196 110 439 439 198 111 440 440 145 112 441 441 146 109 442 442 198 111 443 443 144 113 444 444 146 109 445 445 145 112 446 446 143 114 447 447 144 113 448 448 145 112 449 449 15 97 450 450 144 113 451 451 143 114 452 452 144 113 453 453 15 97 454 454 197 115 455 455 146 109 456 456 144 113 457 457 197 115 458 458 136 107 459 459 146 109 460 460 197 115 461 461 138 103 462 462 136 107 463 463 197 115 464 464 140 101 465 465 138 103 466 466 197 115 467 467 142 99 468 468 140 101 469 469 197 115 470 470 199 98 471 471 142 99 472 472 197 115 473 473 15 97 474 474 199 98 475 475 197 115 476 476 14 96 477 477 15 97 478 478 143 114 479 479 16 116 480 480 17 117 481 481 18 118 482 482 17 117 483 483 19 119 484 484 18 118 485 485 19 119 486 486 17 117 487 487 206 120 488 488 207 121 489 489 19 119 490 490 206 120 491 491 130 122 492 492 207 121 493 493 206 120 494 494 205 123 495 495 130 122 496 496 206 120 497 497 130 122 498 498 205 123 499 499 208 124 500 500 129 125 501 501 130 122 502 502 208 124 503 503 128 126 504 504 130 122 505 505 129 125 506 506 127 127 507 507 128 126 508 508 129 125 509 509 126 128 510 510 128 126 511 511 127 127 512 512 21 129 513 513 126 128 514 514 127 127 515 515 126 128 516 516 21 129 517 517 20 130 518 518 125 131 519 519 126 128 520 520 20 130 521 521 124 132 522 522 126 128 523 523 125 131 524 524 123 133 525 525 124 132 526 526 125 131 527 527 134 134 528 528 124 132 529 529 123 133 530 530 202 135 531 531 134 134 532 532 123 133 533 533 134 134 534 534 202 135 535 535 204 136 536 536 133 137 537 537 134 134 538 538 204 136 539 539 132 138 540 540 134 134 541 541 133 137 542 542 131 139 543 543 132 138 544 544 133 137 545 545 19 119 546 546 132 138 547 547 131 139 548 548 132 138 549 549 19 119 550 550 203 140 551 551 134 134 552 552 132 138 553 553 203 140 554 554 124 132 555 555 134 134 556 556 203 140 557 557 126 128 558 558 124 132 559 559 203 140 560 560 128 126 561 561 126 128 562 562 203 140 563 563 130 122 564 564 128 126 565 565 203 140 566 566 207 121 567 567 130 122 568 568 203 140 569 569 19 119 570 570 207 121 571 571 203 140 572 572 18 118 573 573 19 119 574 574 131 139 575 575 20 130 576 576 21 129 577 577 22 141 578 578 21 129 579 579 23 142 580 580 22 141 581 581 23 142 582 582 21 129 583 583 127 127 584 584 212 143 585 585 23 142 586 586 127 127 587 587 118 144 588 588 212 143 589 589 127 127 590 590 129 125 591 591 118 144 592 592 127 127 593 593 118 144 594 594 129 125 595 595 208 124 596 596 117 145 597 597 118 144 598 598 208 124 599 599 116 146 600 600 118 144 601 601 117 145 602 602 115 147 603 603 116 146 604 604 117 145 605 605 114 148 606 606 116 146 607 607 115 147 608 608 213 149 609 609 114 148 610 610 115 147 611 611 114 148 612 612 213 149 613 613 214 150 614 614 113 151 615 615 114 148 616 616 214 150 617 617 112 152 618 618 114 148 619 619 113 151 620 620 111 153 621 621 112 152 622 622 113 151 623 623 122 154 624 624 112 152 625 625 111 153 626 626 209 155 627 627 122 154 628 628 111 153 629 629 122 154 630 630 209 155 631 631 211 156 632 632 121 157 633 633 122 154 634 634 211 156 635 635 120 158 636 636 122 154 637 637 121 157 638 638 119 159 639 639 120 158 640 640 121 157 641 641 23 142 642 642 120 158 643 643 119 159 644 644 120 158 645 645 23 142 646 646 210 160 647 647 122 154 648 648 120 158 649 649 210 160 650 650 112 152 651 651 122 154 652 652 210 160 653 653 114 148 654 654 112 152 655 655 210 160 656 656 116 146 657 657 114 148 658 658 210 160 659 659 118 144 660 660 116 146 661 661 210 160 662 662 212 143 663 663 118 144 664 664 210 160 665 665 23 142 666 666 212 143 667 667 210 160 668 668 22 141 669 669 23 142 670 670 119 159 671 671 32 161 672 672 33 162 673 673 34 163 674 674 92 164 675 675 33 162 676 676 32 161 677 677 33 162 678 678 92 164 679 679 93 165 680 680 35 166 681 681 33 162 682 682 93 165 683 683 33 162 684 684 35 166 685 685 34 163 686 686 34 163 687 687 35 166 688 688 85 167 689 689 35 166 690 690 86 168 691 691 85 167 692 692 86 168 693 693 35 166 694 694 223 169 695 695 88 170 696 696 86 168 697 697 223 169 698 698 86 168 699 699 88 170 700 700 87 171 701 701 85 167 702 702 86 168 703 703 87 171 704 704 87 171 705 705 88 170 706 706 224 172 707 707 88 170 708 708 65 173 709 709 224 172 710 710 65 173 711 711 88 170 712 712 63 174 713 713 63 174 714 714 64 175 715 715 65 173 716 716 43 176 717 717 64 175 718 718 63 174 719 719 64 175 720 720 43 176 721 721 229 177 722 722 66 178 723 723 64 175 724 724 229 177 725 725 64 175 726 726 66 178 727 727 65 173 728 728 65 173 729 729 66 178 730 730 224 172 731 731 66 178 732 732 228 179 733 733 224 172 734 734 228 179 735 735 66 178 736 736 59 180 737 737 66 178 738 738 60 181 739 739 59 180 740 740 60 181 741 741 66 178 742 742 229 177 743 743 62 182 744 744 60 181 745 745 229 177 746 746 60 181 747 747 62 182 748 748 61 183 749 749 59 180 750 750 60 181 751 751 61 183 752 752 61 183 753 753 62 182 754 754 233 184 755 755 232 185 756 756 62 182 757 757 229 177 758 758 230 186 759 759 232 185 760 760 229 177 761 761 231 187 762 762 230 186 763 763 229 177 764 764 230 186 765 765 231 187 766 766 51 188 767 767 53 189 768 768 230 186 769 769 51 188 770 770 51 188 771 771 52 190 772 772 53 189 773 773 50 191 774 774 52 190 775 775 51 188 776 776 41 192 777 777 50 191 778 778 51 188 779 779 50 191 780 780 41 192 781 781 40 193 782 782 49 194 783 783 50 191 784 784 40 193 785 785 48 195 786 786 50 191 787 787 49 194 788 788 47 4 789 789 48 195 790 790 49 194 791 791 49 194 792 792 176 196 793 793 47 4 794 794 176 196 795 795 49 194 796 796 40 193 797 797 175 197 798 798 176 196 799 799 40 193 800 800 174 198 801 801 176 196 802 802 175 197 803 803 81 199 804 804 174 198 805 805 175 197 806 806 173 200 807 807 174 198 808 808 81 199 809 809 83 201 810 810 173 200 811 811 81 199 812 812 81 199 813 813 82 202 814 814 83 201 815 815 80 203 816 816 82 202 817 817 81 199 818 818 175 197 819 819 80 203 820 820 81 199 821 821 80 203 822 822 175 197 823 823 40 193 824 824 42 204 825 825 80 203 826 826 40 193 827 827 40 193 828 828 41 192 829 829 42 204 830 830 41 192 831 831 43 176 832 832 42 204 833 833 43 176 834 834 41 192 835 835 51 188 836 836 231 187 837 837 43 176 838 838 51 188 839 839 43 176 840 840 231 187 841 841 229 177 842 842 42 204 843 843 43 176 844 844 63 174 845 845 63 174 846 846 79 205 847 847 42 204 848 848 88 170 849 849 79 205 850 850 63 174 851 851 79 205 852 852 88 170 853 853 223 169 854 854 80 203 855 855 79 205 856 856 223 169 857 857 79 205 858 858 80 203 859 859 42 204 860 860 82 202 861 861 80 203 862 862 223 169 863 863 84 206 864 864 82 202 865 865 223 169 866 866 82 202 867 867 84 206 868 868 83 201 869 869 83 201 870 870 84 206 871 871 183 207 872 872 173 200 873 873 83 201 874 874 183 207 875 875 172 208 876 876 173 200 877 877 183 207 878 878 171 209 879 879 173 200 880 880 172 208 881 881 170 13 882 882 171 209 883 883 172 208 884 884 180 9 885 885 171 209 886 886 170 13 887 887 171 209 888 888 180 9 889 889 181 8 890 890 173 200 891 891 171 209 892 892 181 8 893 893 174 198 894 894 173 200 895 895 181 8 896 896 176 196 897 897 174 198 898 898 181 8 899 899 182 210 900 900 176 196 901 901 181 8 902 902 176 196 903 903 182 210 904 904 47 4 905 905 182 210 906 906 3 5 907 907 47 4 908 908 3 5 909 909 182 210 910 910 181 8 911 911 44 211 912 912 45 212 913 913 46 213 914 914 46 213 915 915 45 212 916 916 55 214 917 917 45 212 918 918 56 215 919 919 55 214 920 920 56 215 921 921 45 212 922 922 234 216 923 923 58 3 924 924 56 215 925 925 234 216 926 926 56 215 927 927 58 3 928 928 57 217 929 929 55 214 930 930 56 215 931 931 57 217 932 932 57 217 933 933 58 3 934 934 0 0 935 935 58 3 936 936 48 195 937 937 47 4 938 938 48 195 939 939 58 3 940 940 234 216 941 941 50 191 942 942 48 195 943 943 234 216 944 944 52 190 945 945 50 191 946 946 234 216 947 947 54 218 948 948 52 190 949 949 234 216 950 950 52 190 951 951 54 218 952 952 53 189 953 953 235 219 954 954 54 218 955 955 234 216 956 956 45 212 957 957 235 219 958 958 234 216 959 959 67 23 960 960 68 220 961 961 69 221 962 962 69 221 963 963 165 44 964 964 67 23 965 965 165 44 966 966 69 221 967 967 28 45 968 968 69 221 969 969 70 48 970 970 28 45 971 971 68 220 972 972 70 48 973 973 69 221 974 974 70 48 975 975 68 220 976 976 226 18 977 977 72 222 978 978 70 48 979 979 226 18 980 980 74 223 981 981 72 222 982 982 226 18 983 983 72 222 984 984 74 223 985 985 73 224 986 986 71 49 987 987 72 222 988 988 73 224 989 989 73 224 990 990 96 225 991 991 71 49 992 992 96 225 993 993 73 224 994 994 183 207 995 995 95 226 996 996 96 225 997 997 183 207 998 998 94 227 999 999 96 225 1000 1000 95 226 1001 1001 93 165 1002 1002 94 227 1003 1003 95 226 1004 1004 92 164 1005 1005 94 227 1006 1006 93 165 1007 1007 94 227 1008 1008 92 164 1009 1009 221 56 1010 1010 96 225 1011 1011 94 227 1012 1012 221 56 1013 1013 222 228 1014 1014 96 225 1015 1015 221 56 1016 1016 96 225 1017 1017 222 228 1018 1018 71 49 1019 1019 222 228 1020 1020 31 50 1021 1021 71 49 1022 1022 31 50 1023 1023 222 228 1024 1024 221 56 1025 1025 90 229 1026 1026 100 57 1027 1027 221 56 1028 1028 100 57 1029 1029 90 229 1030 1030 89 230 1031 1031 220 231 1032 1032 100 57 1033 1033 89 230 1034 1034 100 57 1035 1035 220 231 1036 1036 216 58 1037 1037 89 230 1038 1038 90 229 1039 1039 91 232 1040 1040 90 229 1041 1041 92 164 1042 1042 91 232 1043 1043 92 164 1044 1044 90 229 1045 1045 221 56 1046 1046 91 232 1047 1047 92 164 1048 1048 32 161 1049 1049 165 44 1050 1050 187 233 1051 1051 67 23 1052 1052 187 233 1053 1053 165 44 1054 1054 185 28 1055 1055 7 24 1056 1056 187 233 1057 1057 185 28 1058 1058 187 233 1059 1059 7 24 1060 1060 67 23 1061 1061 78 19 1062 1062 68 220 1063 1063 67 23 1064 1064 68 220 1065 1065 78 19 1066 1066 226 18 1067 1067 227 234 1068 1068 74 223 1069 1069 226 18 1070 1070 74 223 1071 1071 227 234 1072 1072 170 13 1073 1073 172 208 1074 1074 74 223 1075 1075 170 13 1076 1076 74 223 1077 1077 172 208 1078 1078 183 207 1079 1079 73 224 1080 1080 74 223 1081 1081 183 207 1082 1082 84 206 1083 1083 95 226 1084 1084 183 207 1085 1085 95 226 1086 1086 84 206 1087 1087 93 165 1088 1088 84 206 1089 1089 225 235 1090 1090 93 165 1091 1091 225 235 1092 1092 84 206 1093 1093 223 169 1094 1094 35 166 1095 1095 225 235 1096 1096 223 169 1097 1097 225 235 1098 1098 35 166 1099 1099 93 165 1100 1100 70 48 1101 1101 72 222 1102 1102 71 49 1103 1103 39 14 1104 1104 227 234 1105 1105 226 18 1106 1106 227 234 1107 1107 39 14 1108 1108 170 13 1109 1109</p>
        </triangles>
      </mesh>
    </geometry>
  </library_geometries>
  <library_visual_scenes>
    <visual_scene id="Scene" name="Scene">
      <node id="mesh_rr_moon" name="mesh_rr_moon" type="NODE">
        <matrix sid="transform">1 0 0 0 0 7.54979e-8 -1 0 0 1 7.54979e-8 0 0 0 0 1</matrix>
        <instance_geometry url="#mesh_rr_moon-mesh" name="mesh_rr_moon">
          <bind_material>
            <technique_common>
              <instance_material symbol="rr_moon-material" target="#rr_moon-material">
                <bind_vertex_input semantic="mesh_rr_moon-texcoord" input_semantic="TEXCOORD" input_set="0"/>
              </instance_material>
            </technique_common>
          </bind_material>
        </instance_geometry>
      </node>
    </visual_scene>
  </library_visual_scenes>
  <scene>
    <instance_visual_scene url="#Scene"/>
  </scene>
</COLLADA>